<?xml version="1.0" encoding="utf-8"?>
<!-- Generator: Adobe Illustrator 23.0.0, SVG Export Plug-In . SVG Version: 6.00 Build 0)  -->
<svg version="1.1" id="OBJECTS" xmlns="http://www.w3.org/2000/svg" xmlns:xlink="http://www.w3.org/1999/xlink" x="0px" y="0px"
	 viewBox="0 0 56.4 85" style="enable-background:new 0 0 56.4 85;" xml:space="preserve">
<style type="text/css">
	.st0{display:none;fill:#222221;}
	.st1{display:none;}
	.st2{display:inline;fill:#222221;}
</style>
<path class="st0" d="M-137.2,84.8L-137.2,84.8C-137.2,84.9-137.2,84.9-137.2,84.8z"/>
<path class="st0" d="M-171.5,88.4C-171.2,88.4-171.2,88.4-171.5,88.4L-171.5,88.4z"/>
<g class="st1">
	<path class="st2" d="M54.7-288.4c-4,0.8-8.7,1.4-12.4-0.7c-1.8-1-4.1,1.1-2.9,2.9c2.7,4.3,4.8,8.2,5.5,13.2
		c0.3,2.1,3.6,1.5,3.6-0.5c-0.1-2.8-0.6-5.6-1.5-8.3c0.9,1,1.9,1.9,3,2.5c1.7,0.9,2.9-1.4,1.4-2.5c-0.8-0.6-1.7-1.1-2.4-1.8
		c-0.2-0.2-0.5-0.4-0.7-0.7c2.4,0.1,4.9-0.1,7.4-1C57.6-285.8,56.8-288.8,54.7-288.4z"/>
	<path class="st2" d="M65.6-275.3c-3.4-0.3-6-0.9-9-2.5c-0.9-0.5-2,0.8-1.2,1.5c2.7,2.3,6.6,3.9,10.2,3.7
		C67.3-272.7,67.3-275.1,65.6-275.3z"/>
	<path class="st2" d="M78.8-277.8c-1.2,0.6-2.4,1.2-3.7,1.7c-1.2,0.4-2.5,0.6-3.7,1.1c-0.6,0.2-0.6,1,0,1.3c2.8,1.1,6.5,0.2,8.9-1.3
		C82.1-276.2,80.6-278.7,78.8-277.8z"/>
	<path class="st2" d="M89.5-288c-1.5,1.8-2.7,3.6-4.6,5c-1.4,1.1-0.2,3.4,1.4,2.5c2.2-1.3,4.5-3.1,5.7-5.4
		C92.9-287.6,90.7-289.5,89.5-288z"/>
	<path class="st2" d="M95.2-300.3c-0.2,1-0.2,2.1-0.4,3.1c-0.2,1-0.4,2-0.6,3s1.1,1.5,1.7,0.7c1.3-1.8,2.3-4.2,2.3-6.4
		C98.2-301.6,95.5-302.1,95.2-300.3z"/>
	<path class="st2" d="M93.6-313c-1.4-1.3-3.2,0.6-2.1,2.1c1.2,1.5,2,3,2.4,4.8c0.4,1.3,2.4,1.1,2.4-0.3
		C96.4-308.8,95.4-311.3,93.6-313z"/>
	<path class="st2" d="M87.9-317.7c-1.3-0.6-2.7-1-4.1-1.4s-2.8-0.9-4.2-1c-1.7-0.1-2.3,2.4-0.9,3.2c1.3,0.7,2.7,1,4.1,1.3
		c1.4,0.4,2.8,0.7,4.2,0.9C88.6-314.6,89.2-317.1,87.9-317.7z"/>
	<path class="st2" d="M70.9-321.1c-1.5-0.5-2.8-0.8-4.3-0.8c-1.7-0.1-2.1,2.7-0.4,3c1.5,0.3,2.9,0.3,4.4,0.3
		C72-318.7,72.3-320.6,70.9-321.1z"/>
	<path class="st2" d="M56.8-325.1c-1.3-0.8-2.4-2-3.4-3.2c-1.3-1.6-4.2,0.6-2.9,2.3c1.4,1.8,3,2.9,5.2,3.5
		C57.3-322.1,58.1-324.3,56.8-325.1z"/>
	<path class="st2" d="M49-334.3c-0.4-1.9-0.6-3.6-0.6-5.6c0.1-2-3.1-2.5-3.6-0.5c-0.5,2.4-0.1,5.3,1.4,7.3
		C47.3-331.8,49.4-332.6,49-334.3z"/>
	<path class="st2" d="M52.1-354.6c-3.1,1.1-4.9,4.3-4.4,7.5c0.2,1.3,2.3,1.3,2.6,0c0.4-2,1.4-3.3,3.1-4.4
		C55.1-352.4,54-355.3,52.1-354.6z"/>
	<path class="st2" d="M66.7-361.4c-2.3,0.4-4.7,1.3-6.8,2.2c-1.6,0.7-0.4,3.1,1.1,2.7c2.3-0.5,4.6-1.3,6.8-2.3
		C69.3-359.5,68.2-361.7,66.7-361.4z"/>
	<path class="st2" d="M80.6-363.1c-1.8-0.1-3.7,0.1-5.5,0.1c-2,0.1-2,3.1,0,3.2c1.8,0.1,3.7,0.2,5.5,0.1
		C82.7-359.9,82.8-363,80.6-363.1z"/>
	<path class="st2" d="M101.5-359.1c-2.8-1-5.7-1.6-8.6-2.1c-1.6-0.2-2.3,2.1-0.7,2.5c2.8,0.7,5.4,1.6,8,2.7
		C102.5-354.9,103.9-358.3,101.5-359.1z"/>
</g>
<path class="st0" d="M-138.8-364.5c-8-1.8-15.3-4.9-23-7.7c-2-0.7-2.9,2.1-1.4,3.2c2.6,1.8,5.4,3.4,8.3,4.7
	c-8.2,0.9-16.6,3.5-23.8,6.2c-9.7,3.7-18.9,9.1-26.9,15.7c-13.2,11-26.5,30.8-24,49c0.1,1,1.7,0.9,1.9,0c2.6-8.8,4.3-17.1,9.2-25
	c4.8-7.8,11.2-14.9,18.5-20.4c7.7-5.8,16.5-9.7,25.8-12.5c7.7-2.3,15.5-3.1,23.3-4.4c-3.8,4.2-6.8,9.1-8.2,14.2
	c-0.8,3,3.3,4.7,4.9,2.1c2.4-3.9,4.3-8,7.2-11.6c2.8-3.4,6-6.1,9.3-8.8C-136-361.2-136.9-364.1-138.8-364.5z"/>
<path class="st0" d="M-280.6-271.4c2.8-0.3,2.8-4.8,0-4.4c-6.5,0.7-12.8,0-18.7-2.9c-1.7-0.8-4.3,0.6-3.5,2.7
	c2.7,7.3,3.1,14.5,4.8,22c0.3,1.5,2.7,1.5,3,0c1.1-5,0.4-10.6-0.9-15.8c8.4,8.5,13.5,22.5,9.1,33.9c-2.7,6.9-10.7,10.7-17.5,12.2
	c-3.3,0.7-6.7,1-10.1,0.7c-3.8-0.3-7.3-1.7-11-2.1c-4.4-0.4-4.9,5.4-2,7.5c7.2,5.3,19.8,4.1,27.8,1.5c8.5-2.8,16.8-8.5,19-17.7
	c3-12.3-1.1-29.3-11.4-37.9C-288.4-271.1-284.5-270.9-280.6-271.4z"/>
<path class="st0" d="M-158.2-206.1c-5.5-0.8-10.8-2.8-16.2-3.8c-1.7-0.3-3.1,1.7-1.8,3c1.2,1.2,2.7,2.2,4.2,3.1
	c-19.6,8.4-36.5,27.7-38.5,49c-0.1,1.3,1.7,1.3,2.1,0.3c8.1-19.5,20.7-34.4,39.9-42.5c-0.8,1.6-1.4,3.2-1.8,5
	c-0.9,4.1,5.4,5.9,6.4,1.8c0.9-4.1,3-7.5,6.5-9.9C-155.4-201.5-155.2-205.6-158.2-206.1z"/>
<g class="st1">
	<path class="st2" d="M-280.2-180.3c-0.3,0.7-0.6,1.4-1,2.1c-5-12.2-16.9-20.1-30.7-19.6c-15.2,0.5-31,11.5-35.6,26.3
		c-0.3,0.8,1,1.7,1.6,0.9c8.4-10.8,16.9-20.9,31.6-22.2c11.5-1,24.3,5.3,28.1,16.4c-1.4-1-2.9-1.9-4.3-2.9c-3.6-2.4-6.9,3.4-3.4,5.7
		l10.6,7.1c1.4,0.9,3.9,0.4,4.6-1.2c1.4-3.1,2.9-6.2,4.3-9.3C-272.4-180.8-278.3-184.3-280.2-180.3z"/>
	<path class="st2" d="M-279.1-158.5c-0.2-1.1-1.7-1.5-2.1-0.3c-4.1,12.4-15.2,20.1-28,22.3c-6.6,1.2-13.8,0.2-19.6-3.5
		c-4.3-2.7-7-6.7-9.1-11.1c1.4,0.6,2.7,1.1,4.1,1.7c3.8,1.5,6.5-5,2.8-6.6c-3.5-1.5-7-3.1-10.4-4.6c-1.8-0.8-4.2-0.6-5.2,1.4
		c-1.6,3.2-3.1,6.7-3.8,10.2c-0.9,4.5,5.8,6.4,7,1.9c0.2-0.5,0.4-1.1,0.6-1.6c2.3,5,5.3,9.5,9.9,12.8c6.7,4.8,15.1,6.4,23.1,5.2
		C-297.3-132.6-277-143.3-279.1-158.5z"/>
</g>
<g class="st1">
	<path class="st2" d="M-58.2-259.5c-9.8-6.9-20.3-13.1-30.5-19.4c-7.6-4.8-15.3-9.9-23.2-14.3c2.1,0.1,4.2,0,6.3-0.5
		c2.8-0.6,2-4.7-0.7-4.8c-6.3-0.3-11.4-1.4-16.6-5.1c-3.2-2.3-6.3,2.5-4,5.2c4.1,4.7,6.6,10.2,8.4,16c0.6,2,3.7,1.7,3.7-0.5
		c0-2.6-0.4-5-1-7.4c7.5,5.6,15.6,10.6,23.4,15.7C-82-267.9-71.7-261-60.9-255C-57.9-253.7-55.6-257.7-58.2-259.5z"/>
	<path class="st2" d="M-44.6-282.6c-2.5-3.7-3.4-7.5-4-11.9c-0.4-3.3-5-3.4-5.2,0c-0.2,2.7,0.2,5.4,1.1,8
		c-9.2-5.4-19.1-10-28.4-14.9c-11.1-5.9-22.1-12-33.2-17.9c-1.9-1-3.3,1.6-1.6,2.8c10.7,7.3,21.8,13.8,33,20.2
		c7.3,4.2,14.8,8.6,22.5,12.3c-1.6,0.4-3.1,0.9-4.5,1.6c-1.6,0.8-0.8,3.4,0.9,3.4c5.6-0.1,10.7-0.8,16.4,0.5
		C-45.5-278-43.2-280.5-44.6-282.6z"/>
</g>
<path d="M52.1,6.6c-7.1,2.7-14.5,3.5-22,2.1c-1.6-0.3-2.4,2.1-0.7,2.5c4,1.1,7.9,1.5,11.9,1.4c-10.6,4.6-19.7,12.5-26.5,21.7
	C5.9,46.3-0.8,63.5,1.6,78.6c0.4,2.2,4.2,2.2,4.5,0c1-7.2,1.4-14.3,3.5-21.3s5.2-13.6,9.4-19.6c6.9-9.9,16.4-17.1,26.8-22.9
	c-1.3,3.2-1.9,6.6-1.6,10.1c0.3,3.2,5.2,3.3,5.1,0C49,19.2,50.3,14.4,54,10C55.2,8.6,54.2,5.8,52.1,6.6z"/>
<path class="st0" d="M-283.7-81.6c-11.8-8-25.9-15.1-40.5-14.2c-9.2,0.6-23,6.2-18.1,17.9c4.8,11.7,20.2,12.4,30.7,14.9
	c6.8,1.6,14.3,4.8,18.1,11c4.3,7,1.3,15.4-5,20.1c-7.6,5.6-18.1,3.7-25.6-1.1c-6.6-4.2-11.5-10.6-15.5-17.3
	c4.9,1.8,10.3,2.7,15.2,1.6c2.8-0.6,1.9-4.5-0.6-4.7c-6.2-0.6-11.5-1.1-17.1-4.1c-2.3-1.3-4.4,0.8-4.1,3.1c0.5,3.3,0.7,6.7,0.8,10
	c0,2.7-0.3,5.6,0.5,8.2c0.3,1,1.7,1.2,2.3,0.3c1.4-2.3,2-5.3,2.2-8.4c5.6,9.5,13.7,17.4,25,19.7c11.6,2.3,24.3-3.3,27.8-15.3
	c3.4-11.6-5.4-21.2-15.5-25.4c-6.1-2.6-12.8-3.2-19.2-4.6c-6.3-1.4-21.8-7.4-15.3-16.4c5.3-7.4,18.4-6,25.9-4.1
	c9.5,2.4,17.9,7.1,26.3,12C-283.5-77.3-281.8-80.3-283.7-81.6z"/>
<path class="st0" d="M-97,33.5c-6.8-1.9-11.6-4.9-16.2-10.3c-1-1.2-3-0.5-3.4,0.9c-1.6,5.6-4.4,10.2-7.9,14.8
	c-1.1,1.4,1.2,3,2.4,1.9c3.2-3.1,5.5-6.7,7.4-10.6c4.8,18.9-13.8,32.8-30.6,35.5c-3.7,0.6-7.6,0.4-11.1-0.7c5-4.2,8.8-9.6,9.6-16.1
	c1.2-10.2-7.7-18.1-16.7-10.7c-7.5,6.1-8,18.8-1.7,25.9c0.2,0.3,0.5,0.5,0.8,0.8c-6.1,3.5-13.2,5.5-20.1,6.2
	c-6.7,0.7-15.6,0.3-21-4.4c9-2.2,18.1-7,18.9-15.7c1.2-11.9-12.9-12.9-20.4-7.6c-6.8,4.8-9.1,12.6-6.9,19.4
	c-10.3,0.8-22.3-3.6-22.8-15.5c-0.1-3.1-4.5-3-4.8,0c-1.2,13.1,12.4,21.1,24,21c1.8,0,3.9-0.2,6.1-0.5c1,1.3,2.2,2.6,3.5,3.7
	c10.4,8.2,27,5.4,38.5,0.9c2.9-1.2,6-2.7,8.8-4.5c10.2,5.6,25.4,1.7,34.5-3.7c11.2-6.7,18.4-19.1,15.3-31.6
	c3.5,2.9,7.8,4.9,12.2,5.5C-95.4,38.4-94,34.3-97,33.5z M-192.8,44.4c7.3,4-0.1,12.1-4.6,14.2c-3.5,1.6-7.4,2.8-11.3,3.5
	c-0.2-0.5-0.4-1-0.6-1.6C-211.8,52.4-201.6,39.6-192.8,44.4z M-165.8,54.5c-0.8-4-0.1-8.3,2.3-11.6c3.6-5.1,11.6-6.7,12.9,0.9
	c1.3,7.5-4.5,14.5-10.3,18.7C-163.3,60.7-165.1,58.1-165.8,54.5z"/>
<path class="st0" d="M-148-268.3c-10.7-5.6-23.3-7.9-35.1-5.4c-6.3,1.4-12,4.2-16.9,8c-2.2-7.6-1.5-16.1,3.3-24.2
	c10.8-18.1,35-21.6,51.3-8.9c2,1.6,4.8-1.1,2.9-2.9c-16.5-14.9-42.2-12.5-55.9,4.9c-8.4,10.7-9.9,23.5-5.9,34.7
	c-8.6,8.9-13.1,21.2-9.9,33.4c-1.3-1.4-2.7-2.7-4.2-3.8s-3.6,1.1-2.6,2.6c4,5.8,8.1,11,11,17.4c1.2,2.6,5.4,1.3,5.3-1.4
	c-0.2-6.6,5.6-9.7,10.3-13c2.8-2,0.4-6.4-2.8-4.7c-4.3,2.2-8.4,5.2-10.9,9.2c-5.4-12.1-2.3-25.3,5.9-34.6c3,5.6,7.5,10.6,13.3,14.4
	c9,6,20.5,9.8,31.3,10.3c9.5,0.5,20.3-3.5,23.3-13.4C-131-255.8-139.8-264-148-268.3z M-158.3-237.3c-8.3-0.7-16.9-3.4-24.1-7.4
	c-7-3.9-12.5-9.5-15.7-16c2.5-2.1,5.4-3.9,8.5-5.3c8.9-4,19.1-4.3,28.4-1.9c7.8,2,18.9,6.5,22,14.7
	C-135-241.7-149.5-236.6-158.3-237.3z"/>
<path class="st0" d="M-29.9-218c-2.9-3-4.9-6.5-6.1-10.5c-0.4-1.3-2.1-1.8-3-0.8c-1.6,1.7-2.6,3.9-4,5.7c-1.6,2.2-3.4,4.3-5.3,6.3
	c-0.9,0.9,0.3,2.8,1.5,1.9c2.2-1.7,4.6-3.6,6.7-5.8c-1.8,6.8-6.3,14.7-11.7,17.4c-9.7,4.8-11.4-7-13.6-13.2
	c-1.1-3.1-3.4-9.2-7.8-7.3c-2.3,1-3.2,4.5-4.2,6.5c-1.7,3.5-3.1,7.9-5.4,10.9c-6.5,8.4-7.8-5.1-8.3-8.3c-0.4-2.7-1.1-5.3-3-7.4
	c-3.2-3.5-8.3-4.2-11.5-0.4c-3.1,3.8-8.4,20.2-15.5,16.9c-6-2.8-3.9-14.4-6.3-19.7c-1.1-2.3-4.9-0.7-4.1,1.7
	c1.9,6,0.7,12.8,4.2,18.3c2.3,3.6,6.6,5.7,10.8,4.2c5.4-1.9,8.3-8.2,11.1-12.8c2.2-3.6,5.7-9.8,8.9-3c1.7,3.5,0.7,7.9,2.2,11.6
	c1.7,4,5.8,7.5,10.3,5.9c5.5-2,7.6-10.1,9.9-14.8c0.3-0.6,1.9-4.9,2.4-5c1-0.1,1.9,3.6,2.2,4.5c0.9,2.8,1.5,5.6,2.5,8.4
	c1.6,4.2,4.5,7.8,9.1,8.6c6.3,1.1,11.8-3.1,15.1-8.1c2.6-3.9,5.5-8.8,6.5-13.8c1,1.7,2.2,3.3,3.7,4.7
	C-30.9-213.7-28.3-216.3-29.9-218z"/>
<path class="st0" d="M44.1-229c-0.4-3.5-1.3-6.9-3.2-9.5c-1.4-2-4.5-0.9-4.1,1.6c0.5,2.8,1.6,5.3,2,8.2c0.5,3.2,0.4,6.4-0.2,9.6
	c-0.5,2.4,1.7,4.1,3.9,3.1c5.5-2.4,11-5,16.3-7.8c1.8-1,0.7-4.2-1.4-3.5c-4,1.3-8,2.8-12,4.4c5.4-14.4,22.7-22.8,36.6-13.7
	c14.2,9.2,22.6,29.2,17.9,45.6c-4.2,15-18.9,26-34.7,21.7c-8.3-2.2-14.1-9-18.5-16c-4.3-6.8-8.1-15.3-4.5-23.2
	c1.2-2.6-2.5-4.9-3.8-2.3c-6.9,13.7,2.7,30.6,13,40c11.1,10.2,28.3,10.7,40.4,2c12.3-8.9,17.5-24.8,15.1-39.5
	c-2.6-15.8-14.5-33.2-31-36.6C62.3-248,49.3-240.9,44.1-229z"/>
<path class="st0" d="M97.3-131.1c-6.6-0.6-13-2.3-19-5c-2.4-1.1-4.5,0.2-4.8,2.7c-0.3,2.1,0.3,3.9,1,5.7
	c-34.9,5-68.9,0.6-101.4-13.6c-1.3-0.6-2.4,1.2-1.1,1.9c31,17.3,69.6,23.7,104.6,17c0.7,2.2,1.3,4.5,1.7,6.8c0.3,1.7,1.9,2,3.1,1.4
	c0.5,0,1.1-0.1,1.6-0.3c5.9-3,11.3-7.1,16.5-11.1C102.1-127.4,99.8-130.8,97.3-131.1z"/>
<path class="st0" d="M-129.4-28.8c-5.6,0.5-11.2,1.3-16.7,2.5c-0.6,0.1-1.1,0.5-1.4,1c-0.3,0.1-0.5,0.2-0.7,0.4
	c-0.7,0.4-1.2,1.4-0.9,2.2c0.2,0.6,0.5,1.1,0.9,1.4c0.1,0.2,0.2,0.4,0.3,0.5c0.9,1.1,1.8,2.1,2.7,3.2c-7.2,6.2-14.3,12.4-21.7,18.3
	c-7.5,6-15.4,11.7-22.5,18.1c-0.9,0.8,0.3,2.2,1.3,1.7c16.7-8.8,32.3-22,46.4-34.5c1.7,1.7,3.4,3.4,5.1,5c1.6,1.4,3.8,0.8,4.5-1.2
	c1.8-5.1,3.5-10.3,5.2-15.4C-126.4-27.1-127.8-28.9-129.4-28.8z"/>
<path class="st0" d="M-225.8-94c-10.6-4.3-22.3-3.3-33.2-0.4c-3.3,0.9-1.9,6.1,1.4,5.2c8.2-2.3,16.8-3.5,25.2-1.6
	c6.7,1.5,16.3,5.9,18,13.3c1.9,7.8-4.9,16.7-11.1,20.5c-6.1,3.7-12.7,3.9-19.3,2.4c0.7-3.2,0.8-6.7-1.9-7.8c-2-0.8-4.2,0.8-6,1.5
	c-3,1.1-6.2,1.6-9.4,1.7c-3.1,0.1-3.8,3.8-1.5,5.5c4.4,3.1,9,5.5,14.1,7.2c1.4,0.5,2.4-0.7,2.5-1.9c0.2-0.2,0.3-0.5,0.4-0.8
	c0.2-0.6,0.5-1.4,0.8-2.4c15.7,5.7,35.9-6.3,36.1-24C-209.3-84.5-218.2-90.9-225.8-94z M-249.2-57c0,0.3-0.1,0.7-0.2,1
	c0,0,0,0-0.1,0c-0.1-0.2-0.3-0.5-0.6-0.6C-249.7-56.7-249.5-56.8-249.2-57z"/>
<path class="st0" d="M113.1,44.4c-1.5-6-5-11.5-9.7-15.9c6.5-10.5,7.2-24.5-0.5-35.7c-2-2.9-6.5-0.3-4.7,2.8
	c5.2,9.2,5.3,20.4,0.4,29.1c-7.7-5.3-17.3-8-26.2-6.4C64.8,19.6,58,25.8,61,34.1c3.2,8.9,13.6,10.8,21.8,9c7-1.5,12.9-5.2,17.2-10.1
	c3.7,3.6,6.4,7.9,7.6,12.8c2.9,11.8-2.8,25.2-13.5,31c-8.3,4.5-19,4.1-26.2-2.3c-6.5-5.8-6.9-13.9-7.1-21.9c1.9,1.7,4.1,3.1,6.5,3.8
	c1.8,0.5,2.9-2.1,1.3-3.1c-3-1.7-5.8-3.4-7.9-6.3c-0.8-1.1-2.6-1.4-3.3,0c-2.1,4.2-4.2,8.3-6.9,12.2c-0.9,1.3,1.2,2.9,2.2,1.7
	c1.6-1.8,3.1-3.7,4.4-5.7c-0.6,7.7,0.8,15.4,6.3,21.5c6.4,7,16.3,9.5,25.4,7.6C106.7,80.8,117.3,61.5,113.1,44.4z M90.3,33.7
	c-5.8,4-15.7,7.2-22,2.4c-3.6-2.8-4.4-8-0.6-10.9c2.7-2,6.5-2.3,9.8-2.1c6.1,0.4,12.4,2.6,17.7,6.2C93.9,30.9,92.2,32.4,90.3,33.7z"
	/>
<path class="st0" d="M-237.6-347.1c-2.5-3.2-4.4-6.7-5.9-10.5c-0.4-1.1-1.9-1.8-2.8-0.7c-0.1,0.1-0.2,0.2-0.3,0.3
	c-0.4,0.1-0.9,0.4-1.1,1c0,0.1-0.1,0.2-0.1,0.3c-2.7,2.9-5.7,5.6-8.7,8.2c-0.9,0.8,0.2,2.1,1.2,1.6c1.9-1,3.8-2.3,5.5-3.6
	c-5.2,16.8-8.3,34.6-11.6,51.8c-1-1.7-1.9-3.4-2.9-5.1c-0.7-1.2-2.8-0.4-2.3,1c1.1,3,2.4,5.9,3.4,8.8c0.4,1.1,1.9,2.1,3,1.2
	c3.6-2.6,6.7-4.9,10.9-6.5c2.7-1,1.6-5.2-1.2-4.3c-1.9,0.6-4,1.5-5.9,2.5c1.6-8.4,3.2-16.8,5-25.2c1.9-9.1,4.3-18.3,5.9-27.5
	c1.5,3.2,3.3,6.2,5.5,9C-238.6-343-236.2-345.4-237.6-347.1z"/>
<path class="st0" d="M102.2-59.3c-3.3-9.4-7.8-18.1-12.6-26.9c-0.6-1-2.2-1.3-3-0.4c-6.5,7.2-12.8,14.4-19,21.9
	c-0.2,0.2-0.3,0.4-0.3,0.6c-0.8,0.5-0.8,2,0.3,2.2c4,0.9,8.1,1.8,12.1,2.5c-0.4,3.4-0.6,6.8-1.5,10.1c-1.4,4.8-3.7,9.4-6.6,13.4
	c-6,8.2-14.5,13.2-21.3,20.4c-1.6,1.8,0.4,4.5,2.6,3.3c9.3-5,18.3-13.7,24.2-22.5c4.4-6.5,8.3-16,6.4-24.1c1.7,0.3,3.5,0.6,5.2,0.9
	c0.4,5.3,1.2,10.5,0.3,15.8c-0.8,4.5-2.6,8.9-4.7,12.9c-4,7.7-8.5,14.8-14.2,21.3c-1.6,1.7,0.4,4.6,2.6,3.3
	c7.9-4.7,12.8-15.7,16.5-23.7c4.4-9.4,5.3-19,2.9-29c2.1,0.4,4.2,0.7,6.3,1.1c1,0.2,1.8-0.4,2.2-1.1
	C101.7-57.2,102.6-58.1,102.2-59.3z M71.1-63.9c5.7-5.9,11.2-12,16.6-18.2c4.1,7,7.4,14.5,10.4,22C89.1-61.4,80.1-62.9,71.1-63.9z"
	/>
<path class="st0" d="M-276-357.2c-13.8-0.7-27.3-2.9-40.6-6.6c-1.4-0.4-3.1,1-2.6,2.6c1.8,4.6,3.6,9.1,5.5,13.6
	c-17.8,1.1-28.7,18.2-30.6,34.9c-2.2,18.6,6.9,36.6,24,44.6c2.3,1.1,4.5-1.1,3.4-3.4c-10.4-21.3-8.8-46.7,9.6-62.5
	c1.3,3.7,2.5,7.5,3.7,11.2c0.5,1.6,2.9,2.2,3.8,0.5c6.2-12.1,14.7-22.7,25.2-31.4C-273.1-355-274.4-357.2-276-357.2z M-301.1-328.5
	c-1.1-3.2-2.1-6.4-3.1-9.6c-0.4-1.3-1.9-2-3.1-1.3c-22.2,13-24.9,41.1-16.9,63.4c-10.8-7.4-16.8-19.7-16.1-33.3
	c0.8-16.2,10.9-34.3,28.9-34.4c1.7,0,2.2-1.7,1.7-2.9c0-0.2,0-0.5-0.1-0.8c-1.3-3.8-2.6-7.6-4-11.4c10.8,2.7,21.7,4.5,32.7,5.3
	C-289-346.2-295.7-337.9-301.1-328.5z"/>
<path class="st0" d="M-185.9-129.3c-5.3-0.3-10-1.9-15.2-2.7c-1.8-0.3-2.9,2-1.3,3.1c2.8,1.9,6.2,3,9.7,3.9
	c-17.4,7.5-38.9,5.2-53.2-8.3c-8-7.5-8.2-18.1-6.7-28.3c1.1-7.6,2.5-15.1,5.2-22.2c0.5,1.6,1.3,3,2.2,4.3c1.8,2.4,5.8,0.2,4.1-2.4
	c-2.3-3.6-2.8-6.8-2.5-11c0.1-1.8-2-2.7-3.4-1.9c-3.3,1.7-6.8,3.2-10,5c-1.4,0.8-0.5,3.1,1.1,2.6c2.1-0.6,4.1-1.3,6.1-2
	c-6.1,7.8-7.5,19.2-8.8,28.6c-1.5,11.1-0.6,22.7,7.9,30.9c13.9,13.5,39.6,17.5,57.4,9.1c-0.3,1.1-0.7,2.2-1.3,3c-2,1-2.4,4,0.3,4.9
	c2.5,0.8,4.4-0.9,5.3-3.2c1.3-3.4,2.3-6.1,5-8.7C-182.3-126.4-183.6-129.2-185.9-129.3z"/>
<path class="st0" d="M-3.1-235.8c-4.9,0.9-7.2,9.3-9.1,13c-1.7,3.3,3.5,6.6,5.6,3.5c0.6-0.9,1.2-1.7,1.8-2.6
	c0.1,24.8,10.6,52.1,31,66.4c1.1,0.8,2.2-0.7,1.3-1.6c-9.6-10.1-17.8-20.2-22.8-33.4c-4.1-10.8-5.7-22.3-4.9-33.8
	c0.8,1.1,1.6,2.2,2.5,3.3c2.9,3.4,8-0.2,5.7-4.1C5.9-228.5,2-236.6-3.1-235.8z"/>
<path class="st0" d="M-277.8,15.9c-1-1.1-2.9,0.3-2.1,1.6c9.8,15.4,9.1,35.3-4.8,48c-12.7,11.6-35,14.8-47.8,1.9
	c-11.5-11.6-11.7-29.6-2.9-42.9c4.6-6.9,11.5-12.3,19.1-15.6c5.1-2.3,11.8-4.5,17.9-4.3c-2.3,1.1-4.5,2.6-6.2,4.2
	c-2.8,2.6,0.8,6.8,3.9,5.1c2.7-1.5,5.4-2.9,8.1-4.2c1.4-0.7,3.6-1.3,5-2.4c0.1,0,0.2-0.1,0.3-0.1c1.5-0.5,2-2.4,1.1-3.5
	c-0.2-0.8-0.5-1.6-0.7-2.3c-0.9-2.6-1.7-5.3-2.7-7.9c-1.5-3.6-7.3-2.1-5.9,1.6c0.5,1.4,1.2,2.8,1.9,4.2
	c-12.6-3.6-28.9,3.4-38.3,10.6c-12.7,9.8-20.2,26.3-17.4,42.3c2.5,14.5,14.4,27,29.1,29.2c15.6,2.3,34.8-4.3,44.4-17.1
	C-265.1,50.1-266.1,29.5-277.8,15.9z"/>
<path class="st0" d="M-17.8-157.8c-9.5-1.6-19.2-2.1-28.7-4.1c-8.9-1.8-17.6-4.5-26.3-7c-0.7-1.5-1.6-3-2.5-4.5
	c2.2,0.2,4.3,0.3,6.5-0.2c6.7,2.9,14.3,4.6,21.3,6.2c8.4,1.9,17.1,3.6,25.7,4.1c2.5,0.2,2.4-3.6,0-3.9c-8.7-1-17.3-1.8-25.8-3.5
	c-5.8-1.2-11.6-2.9-17.4-4.4c2.8-1.4,5.3-3.4,8.2-4.7c3.3-1.5,0.9-6.5-2.4-5.7c-3.4,0.8-5.7,3.4-8.8,4.8c-4.4,2.1-9.4,0.7-13.9-0.4
	c-3-0.8-5,2.9-3,5.1c4.9,5.4,7.1,11.8,11.2,17.5c0.9,1.3,2.8,0.8,2.9-0.8c0.2-2.3-0.2-4.7-1-7c7.8,3.3,16.1,5.6,24.3,7.6
	c9.3,2.2,19.5,4.6,29.1,4.6C-16.2-153.9-15.5-157.4-17.8-157.8z"/>
<path class="st0" d="M-224.6-20.4c-6.2-4.1-14.2-6.5-21.3-8.5c-7.6-2.1-15.5-3.7-23.5-3.7c-0.8,0-1,1.2-0.2,1.4
	c10.4,2.2,20.6,4.3,30.4,8.3c5,2,11.1,4.3,14.9,8.3c3.9,4,6.2,10,7.2,15.4c2.2,11.3-3.2,23.1-15.4,25c-4.9,0.8-11-0.5-13.9-4.9
	c-4.1-6.2,1.1-12.8,4.2-18.1c0.2,2.5,0.9,5.1,2.2,6.9c1.9,2.7,6.7,1.2,5.6-2.4c-0.5-1.6-1.2-3-1.5-4.7s-0.1-3.3-0.1-5
	c0-2.1-2.4-3.6-4.2-2.4s-3.9,2-6,2.6c-1.8,0.5-3.8,0.6-5.4,1.8c-0.8,0.6-1,1.9,0,2.4c1.4,0.7,3.1,0.9,4.8,0.7
	c-6.9,9-8.2,22.2,4.5,26.8c10.9,3.9,23.5-2.9,27.8-13.4C-209.8,4.8-214-13.5-224.6-20.4z"/>
<path class="st0" d="M-239.3-268.4c-3.1-1.7-6.3-3.4-9.4-5.1c-2.1-1.1-4.9-0.2-5.5,2.2c-1.1,4.7-2.7,9.3-4.6,13.8
	c-1.5,3.7,4.4,5.8,6.3,2.6l0,0c1.3-2.4,2.4-4.9,3.4-7.5c5.9,13.6,3.8,28.5-3.3,41.8c-0.5,1,0.8,2.2,1.7,1.3
	c10.2-11.8,11.4-29.2,6-43.5c0.6,0.3,1.1,0.6,1.7,0.9C-238.8-259.4-235-266.1-239.3-268.4z"/>
<path class="st0" d="M15.7-373.5c-6,1.5-12.1,3.1-18.1,4.6c-3.7,0.9-3.7,7.2,0.5,7.1c2.6-0.1,5-0.4,7.4-0.9
	c-20.9,30.1-32.4,69-22.9,105.1c-1.6-1.1-3.2-2.2-4.8-3.1c-2.7-1.4-5.1,1.5-3.4,3.9c2.6,3.7,6.6,6.6,10.1,9.5
	c2.3,1.9,5.5-0.3,5.8-2.9c0.4-4.4,2.2-8.1,5.3-11.2c3.4-3.4-1.5-9-5.1-5.6c-1.8,1.7-3.3,3.7-4.5,5.8c-2.3-17.5-2.4-34.8,1.8-52.2
	c4.2-17.9,12.2-35.8,24.1-50c-0.1,1.4-0.1,2.8,0,4.2c0.4,6,9.1,5.5,8.3-0.6c-0.4-3.3-0.4-6.4,0.1-9.7C20.6-371.9,18-374,15.7-373.5z
	"/>
<path class="st0" d="M-35.8-356.9c-9.2-2.9-17.9-7.1-25.9-12.5c-1.6-1.1-4,0.3-3.9,2.2c0.2,3.6,0.3,7.3,0.4,10.9
	c-18.7-1.7-36.8-6.3-54.1-13.7c-1.5-0.6-3.9,0.9-2.6,2.6c3.6,4.8,7.6,9.1,12.2,12.8c-4.3,0.8-8.6,1.8-12.8,3.1
	c-1.1,0.4-1.5,1.4-1.4,2.3c-0.1,0.5,0.1,1,0.7,1.3c0.3,0.3,0.8,0.5,1.3,0.4c17.5,5.6,35.5,8.3,53.8,8.4c0,5.2,0.4,10.3,1.3,15.4
	c0.3,2,3,1.9,3.9,0.5c7.8-11,16.8-20.6,27.7-28.5C-33.1-353.1-33.3-356.1-35.8-356.9z M-63.6-329.8c-0.6-3.7-0.8-7.4-0.8-11.1
	c0-1-0.9-1.8-1.8-1.8c-17.3,0.2-34.5-1.9-51.2-6c4.1-1.2,8.2-2.3,12.4-3.1c1.7-0.3,1.5-2.5,0.4-3.3c-3.4-2.5-6.6-5.2-9.4-8.3
	c16.3,6.9,33.7,11.2,51.4,12.5c1.3,0.1,2.6-1.3,2.6-2.6c-0.1-2.9-0.2-5.8-0.3-8.6c5.6,3.7,11.6,6.7,17.9,9.1
	C-50.3-346.2-57.5-338.4-63.6-329.8z"/>
<path class="st0" d="M-9.7-114.1c-6,2-11.5,1.9-17.6,1c-2.9-0.4-4.2,3.5-1.2,4.5c2.8,0.9,5.7,1.3,8.6,1.5
	c-11.6,10.8-28.9,18.1-44.7,15c-3-0.6-6.2-1.8-9-3.6c0.1,0,0.2-0.1,0.3-0.1c6.9-2.8,14.8-8.8,14.1-17.1c-0.6-7.1-8.1-12.3-14.9-11.6
	c-7.6,0.7-13.3,8.2-13.8,15.5c-0.3,3.7,0.7,7.4,2.6,10.6c-6.3-0.1-12.7-2.2-17.3-6.4c-2.6-2.3-4.7-5.5-5.9-8.9
	c9.5-3.1,17.5-11.7,19.9-22.5c0.2-1.1-0.2-2.3-1.2-2.9c-15.3-8.5-30.1,6.9-26.9,22c-4.8-0.2-9.5-2.1-13.4-6
	c-2.1-2.2-3.7-4.7-4.6-7.3c4.9-1.2,9.7-3,13.5-5.1c6.2-3.3,15.3-11.2,12.8-19.4c-2.7-8.6-15-6-20.7-2.4
	c-8.5,5.3-12.3,14.4-11.3,23.1c-6.9,1.5-14,0.6-16.5-7.6c-5.2-17.1,14-26.5,26.5-32.1c1.1-0.5,0.3-2.4-0.9-2
	c-14.5,5.2-32.8,14.3-29.8,32.8c1.9,12.1,11.6,14.7,21.7,13.5c1.5,4.5,4.3,8.7,8.6,11.9c5,3.8,10.3,5.3,15.5,5.1
	c5.7,13,19.8,20.4,33.5,18.9c2,2.1,4.4,3.9,6.9,5.1c20.1,10,46.6-2,60.4-17.2c0.4-0.4,0.6-0.9,0.6-1.4c0.1,0,0.2,0,0.4,0
	c-1.2,4.5-1.2,9.3-0.1,13.8c1.1,4.4,7.6,2.5,6.7-1.9c-1-5.3-0.5-9.8,1.1-14.9C-5.1-112.5-7.4-114.8-9.7-114.1z M-132.7-145.2
	c2.1-3.1,5.1-5.7,8.6-7c3.3-1.3,10.2-2.5,7.5,3.1c-3.2,6.5-10.5,10-16.9,12.6c-0.7,0.3-1.4,0.6-2.1,0.8
	C-135.6-138.9-134.7-142.2-132.7-145.2z M-108.6-126.7c2.3-5.4,8.8-9.3,14.6-8.4c-1.6,8.6-8,14.9-15.6,17.1
	C-110-120.9-109.7-123.9-108.6-126.7z M-77.9-99.4c-2-2.3-3.3-5.1-3.4-8.4c-0.4-8.4,10.9-17.2,16.5-7.5
	C-60.3-107.5-70.9-101.4-77.9-99.4z"/>
<path class="st0" d="M45.7-78c-25.8-6.8-54-0.5-70.2,21.8c-4.8,6.7-8.7,15.2-9.2,23.8c-8.2,6.6-14.9,15.5-19,25
	c-5.9,13.5-8.3,29.8-2.9,43.9c3.3,8.7,9.2,16.5,17,21.4c-4.1,0.5-8.2,1.4-12.1,3c-3,1.2-1.9,5.6,1.4,4.9c9.2-1.8,17.8-2.7,27.2-1.3
	c4.1,0.6,5.5-4.6,1.7-6.2C-25.8,56-27.2,51-27,45.8c0.2-3.5-5.2-4.1-6.1-0.8c-1.2,4.5-0.2,8.9,2.2,12.5c-0.1,0-0.2,0-0.3,0
	C-62.6,42.4-56.5-3-33.3-25.3c0.3,1.7,0.8,3.4,1.5,5.1C-27.3-9.6-16-3.9-5-3C6.2-2.1,19.2-6.6,22.5-18.5c3-10.9-5.8-19.8-15.5-22.9
	C-4.4-45-15.6-43.1-25.3-38c1.3-4.8,3.6-9.4,6.3-13.2C-5.1-71.5,21.4-78,44.7-74.3C47-73.9,48.1-77.3,45.7-78z M-13.1-36.9
	c9.4-2.3,22.5-1.5,29.3,6.5c4.1,4.8,3.1,11.3-0.9,15.7c-3.9,4.3-9.9,5.8-15.5,5.8c-9,0-19.6-4-24-12.5c-1.6-3-2.2-6.3-2.1-9.6
	C-22.3-33.7-17.8-35.7-13.1-36.9z"/>
<path class="st0" d="M-77.6-7.8c3.9,1.8,7.2-3.9,3.4-5.8c-5.8-2.8-11.8-4.3-18.2-4.5c-1.3,0-3,1.1-3.2,2.4c-0.9,6-1.9,12-2.7,18
	c-0.4,3.1,4,5.9,5.6,2.4C-91,1-89.6-2.7-88.6-6.6c16.1,20.7,10.9,49.1,0.8,71.8c-0.6,1.3,1.2,2.4,1.9,1.1
	c12.3-23.4,19-54.4,1.5-76.5C-82.1-9.6-79.8-8.8-77.6-7.8z"/>
<path class="st0" d="M-62.4-40.4c-4-4.4-8.1-9.1-12.7-13c-4.1-3.5-9.2,1.7-5.8,5.8c1,1.3,2.1,2.5,3.3,3.7
	c-16.4-3.3-32.8-9-48.6-14.1c-18.1-5.9-35.9-12.5-53.6-19.4c-2-0.8-3.5,2.6-1.5,3.5c17.2,8,34.8,15,52.7,21.2c9,3.1,18.1,6,27.2,8.8
	c3.5,1,7,2,10.5,2.9c-4,1.2-3,7.6,1.3,7.6c8.1,0,16.3-0.2,24.4,0.1C-61.6-33.3-60.1-37.9-62.4-40.4z"/>
<path class="st0" d="M-52.4-67.4c-8.2-4.3-18.2-6.1-27.1-8.8c-9.5-2.9-19-5.8-28.5-8.6c-15.1-4.5-30.2-9.5-45.6-13.1
	c2.3-1,4.5-2.1,6.5-3.3c3.5-2.2,1.3-7.8-2.8-6.7c-6.7,1.7-13.2,5.4-19.5,8.1c-2.8,1.2-2.3,5.4,0,6.7c6,3.6,11.9,7.7,18.1,11
	c2.3,1.2,4.8-1.8,2.8-3.7c-3.1-2.9-6.5-5.6-9.8-8.3c15.6,5.9,31.8,10.4,47.6,15.3c9.5,2.9,19,5.8,28.5,8.7c9.2,2.8,18.9,7,28.4,7.9
	C-51.1-61.9-50.1-66.1-52.4-67.4z"/>
<path class="st0" d="M-171.5-37.9c-2.7-2.8-4.9-5.7-6.8-9.2c-1-1.8-3.9-2.8-5.6-1.5c-0.4,0.3-0.9,0.7-1.3,1
	c-0.7,0.2-1.2,0.7-1.6,1.3c-4.6,3.9-8.5,8.4-11.2,13.9c-1.6,3.2,1.9,8,5.4,5.4c1.9-1.4,3.7-2.9,5.3-4.6c0.1,3,0.4,6,1,8.8
	c0.7,3.2,4.8,2,5.2-0.7c0.5-4,0.5-8.2,0.5-12.3c1,1.3,2.1,2.5,3.3,3.6C-173.5-28.4-167.9-34-171.5-37.9z"/>
</svg>
