<?xml version="1.0" encoding="utf-8"?>
<!-- Generator: Adobe Illustrator 23.0.0, SVG Export Plug-In . SVG Version: 6.00 Build 0)  -->
<svg version="1.1" id="OBJECTS" xmlns="http://www.w3.org/2000/svg" xmlns:xlink="http://www.w3.org/1999/xlink" x="0px" y="0px"
	 viewBox="0 0 97.2 86.4" style="enable-background:new 0 0 97.2 86.4;" xml:space="preserve">
<style type="text/css">
	.st0{display:none;fill:#222221;}
	.st1{display:none;}
	.st2{display:inline;fill:#222221;}
</style>
<path class="st0" d="M94.6,460.6L94.6,460.6C94.6,460.6,94.6,460.7,94.6,460.6z"/>
<path class="st0" d="M60.3,464.1C60.7,464.2,60.6,464.2,60.3,464.1L60.3,464.1z"/>
<g class="st1">
	<path class="st2" d="M286.5,87.4c-4,0.8-8.7,1.4-12.4-0.7c-1.8-1-4.1,1.1-2.9,2.9c2.7,4.3,4.8,8.2,5.5,13.2
		c0.3,2.1,3.6,1.5,3.6-0.5c-0.1-2.8-0.6-5.6-1.5-8.3c0.9,1,1.9,1.9,3,2.5c1.7,0.9,2.9-1.4,1.4-2.5c-0.8-0.6-1.7-1.1-2.4-1.8
		c-0.2-0.2-0.5-0.4-0.7-0.7c2.4,0.1,4.9-0.1,7.4-1C289.4,89.9,288.7,87,286.5,87.4z"/>
	<path class="st2" d="M297.4,100.5c-3.4-0.3-6-0.9-9-2.5c-0.9-0.5-2,0.8-1.2,1.5c2.7,2.3,6.6,3.9,10.2,3.7
		C299.2,103.1,299.1,100.7,297.4,100.5z"/>
	<path class="st2" d="M310.6,98c-1.2,0.6-2.4,1.2-3.7,1.7c-1.2,0.4-2.5,0.6-3.7,1.1c-0.6,0.2-0.6,1,0,1.3c2.8,1.1,6.5,0.2,8.9-1.3
		C313.9,99.6,312.4,97.1,310.6,98z"/>
	<path class="st2" d="M321.3,87.7c-1.5,1.8-2.7,3.6-4.6,5c-1.4,1.1-0.2,3.4,1.4,2.5c2.2-1.3,4.5-3.1,5.7-5.4
		C324.7,88.2,322.6,86.3,321.3,87.7z"/>
	<path class="st2" d="M327,75.5c-0.2,1-0.2,2.1-0.4,3.1c-0.2,1-0.4,2-0.6,3s1.1,1.5,1.7,0.7c1.3-1.8,2.3-4.2,2.3-6.4
		C330.1,74.2,327.3,73.7,327,75.5z"/>
	<path class="st2" d="M325.4,62.8c-1.4-1.3-3.2,0.6-2.1,2.1c1.2,1.5,2,3,2.4,4.8c0.4,1.3,2.4,1.1,2.4-0.3
		C328.2,67,327.2,64.5,325.4,62.8z"/>
	<path class="st2" d="M319.7,58.1c-1.3-0.6-2.7-1-4.1-1.4s-2.8-0.9-4.2-1c-1.7-0.1-2.3,2.4-0.9,3.2c1.3,0.7,2.7,1,4.1,1.3
		c1.4,0.4,2.8,0.7,4.2,0.9C320.4,61.2,321.1,58.7,319.7,58.1z"/>
	<path class="st2" d="M302.7,54.7c-1.5-0.5-2.8-0.8-4.3-0.8c-1.7-0.1-2.1,2.7-0.4,3c1.5,0.3,2.9,0.3,4.4,0.3
		C303.8,57.1,304.1,55.2,302.7,54.7z"/>
	<path class="st2" d="M288.6,50.7c-1.3-0.8-2.4-2-3.4-3.2c-1.3-1.6-4.2,0.6-2.9,2.3c1.4,1.8,3,2.9,5.2,3.5
		C289.1,53.6,290,51.5,288.6,50.7z"/>
	<path class="st2" d="M280.9,41.5c-0.4-1.9-0.6-3.6-0.6-5.6c0.1-2-3.1-2.5-3.6-0.5c-0.5,2.4-0.1,5.3,1.4,7.3
		C279.1,43.9,281.3,43.2,280.9,41.5z"/>
	<path class="st2" d="M284,21.2c-3.1,1.1-4.9,4.3-4.4,7.5c0.2,1.3,2.3,1.3,2.6,0c0.4-2,1.4-3.3,3.1-4.4
		C286.9,23.4,285.9,20.5,284,21.2z"/>
	<path class="st2" d="M298.5,14.4c-2.3,0.4-4.7,1.3-6.8,2.2c-1.6,0.7-0.4,3.1,1.1,2.7c2.3-0.5,4.6-1.3,6.8-2.3
		C301.1,16.2,300,14.1,298.5,14.4z"/>
	<path class="st2" d="M312.4,12.7c-1.8-0.1-3.7,0.1-5.5,0.1c-2,0.1-2,3.1,0,3.2c1.8,0.1,3.7,0.2,5.5,0.1
		C314.6,15.9,314.6,12.8,312.4,12.7z"/>
	<path class="st2" d="M333.4,16.7c-2.8-1-5.7-1.6-8.6-2.1c-1.6-0.2-2.3,2.1-0.7,2.5c2.8,0.7,5.4,1.6,8,2.7
		C334.3,20.8,335.7,17.5,333.4,16.7z"/>
</g>
<path d="M93,11.3c-8-1.8-15.3-4.9-23-7.7c-2-0.7-2.9,2.1-1.4,3.2c2.6,1.8,5.4,3.4,8.3,4.7c-8.2,0.9-16.6,3.5-23.8,6.2
	c-9.7,3.7-18.9,9.1-26.9,15.7c-13.2,11-26.5,30.8-24,49c0.1,1,1.7,0.9,1.9,0c2.6-8.8,4.3-17.1,9.2-25c4.8-7.8,11.2-14.9,18.5-20.4
	c7.7-5.8,16.5-9.7,25.8-12.5c7.7-2.3,15.5-3.1,23.3-4.4c-3.8,4.2-6.8,9.1-8.2,14.2c-0.8,3,3.3,4.7,4.9,2.1c2.4-3.9,4.3-8,7.2-11.6
	c2.8-3.4,6-6.1,9.3-8.8C95.9,14.6,94.9,11.7,93,11.3z"/>
<path class="st0" d="M-48.8,104.4c2.8-0.3,2.8-4.8,0-4.4c-6.5,0.7-12.8,0-18.7-2.9c-1.7-0.8-4.3,0.6-3.5,2.7
	c2.7,7.3,3.1,14.5,4.8,22c0.3,1.5,2.7,1.5,3,0c1.1-5,0.4-10.6-0.9-15.8c8.4,8.5,13.5,22.5,9.1,33.9c-2.7,6.9-10.7,10.7-17.5,12.2
	c-3.3,0.7-6.7,1-10.1,0.7c-3.8-0.3-7.3-1.7-11-2.1c-4.4-0.4-4.9,5.4-2,7.5c7.2,5.3,19.8,4.1,27.8,1.5c8.5-2.8,16.8-8.5,19-17.7
	c3-12.3-1.1-29.3-11.4-37.9C-56.5,104.7-52.7,104.8-48.8,104.4z"/>
<path class="st0" d="M73.6,169.7c-5.5-0.8-10.8-2.8-16.2-3.8c-1.7-0.3-3.1,1.7-1.8,3c1.2,1.2,2.7,2.2,4.2,3.1
	c-19.6,8.4-36.5,27.7-38.5,49c-0.1,1.3,1.7,1.3,2.1,0.3c8.1-19.5,20.7-34.4,39.9-42.5c-0.8,1.6-1.4,3.2-1.8,5
	c-0.9,4.1,5.4,5.9,6.4,1.8c0.9-4.1,3-7.5,6.5-9.9C76.5,174.3,76.7,170.1,73.6,169.7z"/>
<g class="st1">
	<path class="st2" d="M-48.3,195.5c-0.3,0.7-0.6,1.4-1,2.1c-5-12.2-16.9-20.1-30.7-19.6c-15.2,0.5-31,11.5-35.6,26.3
		c-0.3,0.8,1,1.7,1.6,0.9c8.4-10.8,16.9-20.9,31.6-22.2c11.5-1,24.3,5.3,28.1,16.4c-1.4-1-2.9-1.9-4.3-2.9c-3.6-2.4-6.9,3.4-3.4,5.7
		l10.6,7.1c1.4,0.9,3.9,0.4,4.6-1.2c1.4-3.1,2.9-6.2,4.3-9.3C-40.6,195-46.5,191.5-48.3,195.5z"/>
	<path class="st2" d="M-47.2,217.3c-0.2-1.1-1.7-1.5-2.1-0.3c-4.1,12.4-15.2,20.1-28,22.3c-6.6,1.2-13.8,0.2-19.6-3.5
		c-4.3-2.7-7-6.7-9.1-11.1c1.4,0.6,2.7,1.1,4.1,1.7c3.8,1.5,6.5-5,2.8-6.6c-3.5-1.5-7-3.1-10.4-4.6c-1.8-0.8-4.2-0.6-5.2,1.4
		c-1.6,3.2-3.1,6.7-3.8,10.2c-0.9,4.5,5.8,6.4,6.9,1.9c0.2-0.5,0.4-1.1,0.6-1.6c2.3,5,5.3,9.5,9.9,12.8c6.7,4.8,15.1,6.4,23.1,5.2
		C-65.5,243.2-45.2,232.5-47.2,217.3z"/>
</g>
<g class="st1">
	<path class="st2" d="M173.7,116.2c-9.8-6.9-20.3-13.1-30.5-19.4c-7.6-4.8-15.3-9.9-23.2-14.3c2.1,0.1,4.2,0,6.3-0.5
		c2.8-0.6,2-4.7-0.7-4.8c-6.3-0.3-11.4-1.4-16.6-5.1c-3.2-2.3-6.3,2.5-4,5.2c4.1,4.7,6.6,10.2,8.4,16c0.6,2,3.7,1.7,3.7-0.5
		c0-2.6-0.4-5-1-7.4c7.5,5.6,15.6,10.6,23.4,15.7c10.4,6.7,20.7,13.6,31.5,19.6C174,122.1,176.2,118.1,173.7,116.2z"/>
	<path class="st2" d="M187.2,93.2c-2.5-3.7-3.4-7.5-4-11.9c-0.4-3.3-5-3.4-5.2,0c-0.2,2.7,0.2,5.4,1.1,8c-9.2-5.4-19.1-10-28.4-14.9
		c-11.1-5.9-22.1-12-33.2-17.9c-1.9-1-3.3,1.6-1.6,2.8c10.7,7.3,21.8,13.8,33,20.2c7.3,4.2,14.8,8.6,22.5,12.3
		c-1.6,0.4-3.1,0.9-4.5,1.6c-1.6,0.8-0.8,3.4,0.9,3.4c5.6-0.1,10.7-0.8,16.4,0.5C186.3,97.8,188.7,95.3,187.2,93.2z"/>
</g>
<path class="st0" d="M283.9,382.4c-7.1,2.7-14.5,3.5-22,2.1c-1.6-0.3-2.4,2.1-0.7,2.5c4,1.1,7.9,1.5,11.9,1.4
	c-10.6,4.6-19.7,12.5-26.5,21.7c-8.9,12-15.6,29.2-13.2,44.3c0.4,2.2,4.2,2.2,4.5,0c1-7.2,1.4-14.3,3.5-21.3s5.2-13.6,9.4-19.6
	c6.9-9.9,16.4-17.1,26.8-22.9c-1.3,3.2-1.9,6.6-1.6,10.1c0.3,3.2,5.2,3.3,5.1,0c-0.3-5.7,1-10.5,4.7-14.9
	C287.1,384.4,286,381.6,283.9,382.4z"/>
<path class="st0" d="M-51.9,294.1c-11.8-8-25.9-15.1-40.5-14.2c-9.2,0.6-23,6.2-18.1,17.9c4.8,11.7,20.2,12.4,30.7,14.9
	c6.8,1.6,14.3,4.8,18.1,11c4.3,7,1.3,15.4-5,20.1c-7.6,5.6-18.1,3.7-25.6-1.1c-6.6-4.2-11.5-10.6-15.5-17.3
	c4.9,1.8,10.3,2.7,15.2,1.6c2.8-0.6,1.9-4.5-0.6-4.7c-6.2-0.6-11.5-1.1-17.1-4.1c-2.3-1.3-4.4,0.8-4.1,3.1c0.5,3.3,0.7,6.7,0.8,10
	c0,2.7-0.3,5.6,0.5,8.2c0.3,1,1.7,1.2,2.3,0.3c1.4-2.3,2-5.3,2.2-8.4c5.6,9.5,13.7,17.4,25,19.7c11.6,2.3,24.3-3.3,27.8-15.3
	c3.4-11.6-5.4-21.2-15.5-25.4c-6.1-2.6-12.8-3.2-19.2-4.6c-6.3-1.4-21.8-7.4-15.3-16.4c5.3-7.4,18.4-6,25.9-4.1
	c9.5,2.4,17.9,7.1,26.3,12C-51.7,298.5-50,295.4-51.9,294.1z"/>
<path class="st0" d="M134.8,409.3c-6.8-1.9-11.6-4.9-16.2-10.3c-1-1.2-3-0.5-3.4,0.9c-1.6,5.6-4.4,10.2-7.9,14.8
	c-1.1,1.4,1.2,3,2.4,1.9c3.2-3.1,5.5-6.7,7.4-10.6c4.8,18.9-13.8,32.8-30.6,35.5c-3.7,0.6-7.6,0.4-11.1-0.7c5-4.2,8.8-9.6,9.6-16.1
	c1.2-10.2-7.7-18.1-16.7-10.7c-7.5,6.1-8,18.8-1.7,25.9c0.2,0.3,0.5,0.5,0.8,0.8c-6.1,3.5-13.2,5.5-20.1,6.2
	c-6.7,0.7-15.6,0.3-21-4.4c9-2.2,18.1-7,18.9-15.7c1.2-11.9-12.9-12.9-20.4-7.6c-6.8,4.8-9.1,12.6-6.9,19.4
	c-10.1,0.7-22-3.7-22.5-15.6c-0.1-3.1-4.5-3-4.8,0c-1.2,13.1,12.4,21.1,24,21c1.8,0,3.9-0.2,6.1-0.5c1,1.3,2.2,2.6,3.5,3.7
	c10.4,8.2,27,5.4,38.5,0.9c2.9-1.2,6-2.7,8.8-4.5c10.2,5.6,25.4,1.7,34.5-3.7c11.2-6.7,18.4-19.1,15.3-31.6
	c3.5,2.9,7.8,4.9,12.2,5.5C136.5,414.2,137.8,410.1,134.8,409.3z M39.1,420.2c7.3,4-0.1,12.1-4.6,14.2c-3.5,1.6-7.4,2.8-11.3,3.5
	c-0.2-0.5-0.4-1-0.6-1.6C20,428.2,30.2,415.3,39.1,420.2z M66,430.3c-0.8-4-0.1-8.3,2.3-11.6c3.6-5.1,11.6-6.7,12.9,0.9
	c1.3,7.5-4.5,14.5-10.3,18.7C68.6,436.5,66.8,433.9,66,430.3z"/>
<path class="st0" d="M83.8,107.4c-10.7-5.6-23.3-7.9-35.1-5.4c-6.3,1.4-12,4.2-16.9,8c-2.2-7.6-1.5-16.1,3.3-24.2
	c10.8-18.1,35-21.6,51.3-8.9c2,1.6,4.8-1.1,2.9-2.9c-16.5-14.9-42.2-12.5-55.9,4.9c-8.4,10.7-9.9,23.5-5.9,34.7
	c-8.6,8.9-13.1,21.2-9.9,33.4c-1.3-1.4-2.7-2.7-4.2-3.8s-3.6,1.1-2.6,2.6c4,5.8,8.1,11,11,17.4c1.2,2.6,5.4,1.3,5.3-1.4
	c-0.2-6.6,5.6-9.7,10.3-13c2.8-2,0.4-6.4-2.8-4.7c-4.3,2.2-8.4,5.2-10.9,9.2c-5.4-12.1-2.3-25.3,5.9-34.6c3,5.6,7.5,10.6,13.3,14.4
	c9,6,20.5,9.8,31.3,10.3c9.5,0.5,20.3-3.5,23.3-13.4C100.9,120,92.1,111.8,83.8,107.4z M73.5,138.5c-8.3-0.7-16.9-3.4-24.1-7.4
	c-7-3.9-12.5-9.5-15.7-16c2.5-2.1,5.4-3.9,8.5-5.3c8.9-4,19.1-4.3,28.4-1.9c7.8,2,18.9,6.5,22,14.7
	C96.9,134.1,82.3,139.2,73.5,138.5z"/>
<path class="st0" d="M201.9,157.8c-2.9-3-4.9-6.5-6.1-10.5c-0.4-1.3-2.1-1.8-3-0.8c-1.6,1.7-2.6,3.9-4,5.7c-1.6,2.2-3.4,4.3-5.3,6.3
	c-0.9,0.9,0.3,2.8,1.5,1.9c2.2-1.7,4.6-3.6,6.7-5.8c-1.8,6.8-6.3,14.7-11.7,17.4c-9.7,4.8-11.4-7-13.6-13.2
	c-1.1-3.1-3.4-9.2-7.8-7.3c-2.3,1-3.2,4.5-4.2,6.5c-1.7,3.5-3.1,7.9-5.4,10.9c-6.5,8.4-7.8-5.1-8.3-8.3c-0.4-2.7-1.1-5.3-3-7.4
	c-3.2-3.5-8.3-4.2-11.5-0.4c-3.1,3.8-8.4,20.2-15.5,16.9c-6-2.8-3.9-14.4-6.3-19.7c-1.1-2.3-4.9-0.7-4.1,1.7
	c1.9,6,0.7,12.8,4.2,18.3c2.3,3.6,6.6,5.7,10.8,4.2c5.4-1.9,8.3-8.2,11.1-12.8c2.2-3.6,5.7-9.8,8.9-3c1.7,3.5,0.7,7.9,2.2,11.6
	c1.7,4,5.8,7.5,10.3,5.9c5.5-2,7.6-10.1,9.9-14.8c0.3-0.6,1.9-4.9,2.4-5c1-0.1,1.9,3.6,2.2,4.5c0.9,2.8,1.5,5.6,2.5,8.4
	c1.6,4.2,4.5,7.8,9.1,8.6c6.3,1.1,11.8-3.1,15.1-8.1c2.6-3.9,5.5-8.8,6.5-13.8c1,1.7,2.2,3.3,3.7,4.7
	C201,162.1,203.6,159.5,201.9,157.8z"/>
<path class="st0" d="M275.9,146.8c-0.4-3.5-1.3-6.9-3.2-9.5c-1.4-2-4.5-0.9-4.1,1.6c0.5,2.8,1.6,5.3,2,8.2c0.5,3.2,0.4,6.4-0.2,9.6
	c-0.5,2.4,1.7,4.1,3.9,3.1c5.5-2.4,11-5,16.3-7.8c1.8-1,0.7-4.2-1.4-3.5c-4,1.3-8,2.8-12,4.4c5.4-14.4,22.7-22.8,36.6-13.7
	c14.2,9.2,22.6,29.2,17.9,45.6c-4.2,15-18.9,26-34.7,21.7c-8.3-2.2-14.1-9-18.5-16c-4.3-6.8-8.1-15.3-4.5-23.2
	c1.2-2.6-2.5-4.9-3.8-2.3c-6.9,13.7,2.7,30.6,13,40c11.1,10.2,28.3,10.7,40.4,2c12.3-8.9,17.5-24.8,15.1-39.5
	c-2.6-15.8-14.5-33.2-31-36.6C294.1,127.8,281.2,134.9,275.9,146.8z"/>
<path class="st0" d="M329.2,244.7c-6.6-0.6-13-2.3-19-5c-2.4-1.1-4.5,0.2-4.8,2.7c-0.3,2.1,0.3,3.9,1,5.7
	c-34.9,5-68.9,0.6-101.4-13.6c-1.3-0.6-2.4,1.2-1.1,1.9c31,17.3,69.6,23.7,104.6,17c0.7,2.2,1.3,4.5,1.7,6.8c0.3,1.7,1.9,2,3.1,1.4
	c0.5,0,1.1-0.1,1.6-0.3c5.9-3,11.3-7.1,16.5-11.1C334,248.4,331.6,244.9,329.2,244.7z"/>
<path class="st0" d="M102.5,347c-5.6,0.5-11.2,1.3-16.7,2.5c-0.6,0.1-1.1,0.5-1.4,1c-0.3,0.1-0.5,0.2-0.7,0.4
	c-0.7,0.4-1.2,1.4-0.9,2.2c0.2,0.6,0.5,1.1,0.9,1.4c0.1,0.2,0.2,0.4,0.3,0.5c0.9,1.1,1.8,2.1,2.7,3.2c-7.2,6.2-14.3,12.4-21.7,18.3
	c-7.5,6-15.4,11.7-22.5,18.1c-0.9,0.8,0.3,2.2,1.3,1.7c16.7-8.8,32.3-22,46.4-34.5c1.7,1.7,3.4,3.4,5.1,5c1.6,1.4,3.8,0.8,4.5-1.2
	c1.8-5.1,3.5-10.3,5.2-15.4C105.4,348.7,104.1,346.8,102.5,347z"/>
<path class="st0" d="M6.1,281.8c-10.6-4.3-22.3-3.3-33.2-0.4c-3.3,0.9-1.9,6.1,1.4,5.2c8.2-2.3,16.8-3.5,25.2-1.6
	c6.7,1.5,16.3,5.9,18,13.3c1.9,7.8-4.9,16.7-11.1,20.5c-6.1,3.7-12.7,3.9-19.3,2.4c0.7-3.2,0.8-6.7-1.9-7.8c-2-0.8-4.2,0.8-6,1.5
	c-3,1.1-6.2,1.6-9.4,1.7c-3.1,0.1-3.8,3.8-1.5,5.5c4.4,3.1,9,5.5,14.1,7.2c1.4,0.5,2.4-0.7,2.5-1.9c0.2-0.2,0.3-0.5,0.4-0.8
	c0.2-0.6,0.5-1.4,0.8-2.4c15.7,5.7,35.9-6.3,36.1-24C22.5,291.3,13.6,284.9,6.1,281.8z M-17.4,318.8c0,0.3-0.1,0.7-0.2,1
	c0,0,0,0-0.1,0c-0.1-0.2-0.3-0.5-0.6-0.6C-17.9,319.1-17.6,319-17.4,318.8z"/>
<path class="st0" d="M345,420.2c-1.5-6-5-11.5-9.7-15.9c6.5-10.5,7.2-24.5-0.5-35.7c-2-2.9-6.5-0.3-4.7,2.8
	c5.2,9.2,5.3,20.4,0.4,29.1c-7.7-5.3-17.3-8-26.2-6.4c-7.7,1.4-14.5,7.5-11.5,15.9c3.2,8.9,13.6,10.8,21.8,9
	c7-1.5,12.9-5.2,17.2-10.1c3.7,3.6,6.4,7.9,7.6,12.8c2.9,11.8-2.8,25.2-13.5,31c-8.3,4.5-19,4.1-26.2-2.3
	c-6.5-5.8-6.9-13.9-7.1-21.9c1.9,1.7,4.1,3.1,6.5,3.8c1.8,0.5,2.9-2.1,1.3-3.1c-3-1.7-5.8-3.4-7.9-6.3c-0.8-1.1-2.6-1.4-3.3,0
	c-2.1,4.2-4.2,8.3-6.9,12.2c-0.9,1.3,1.2,2.9,2.2,1.7c1.6-1.8,3.1-3.7,4.4-5.7c-0.6,7.7,0.8,15.4,6.3,21.5c6.4,7,16.3,9.5,25.4,7.6
	C338.5,456.6,349.2,437.3,345,420.2z M322.2,409.4c-5.8,4-15.7,7.2-22,2.4c-3.6-2.8-4.4-8-0.6-10.9c2.7-2,6.5-2.3,9.8-2.1
	c6.1,0.4,12.4,2.6,17.7,6.2C325.8,406.7,324.1,408.2,322.2,409.4z"/>
<path class="st0" d="M-5.7,28.7c-2.5-3.2-4.4-6.7-5.9-10.5c-0.4-1.1-1.9-1.8-2.8-0.7c-0.1,0.1-0.2,0.2-0.3,0.3
	c-0.4,0.1-0.9,0.4-1.1,1c0,0.1-0.1,0.2-0.1,0.3c-2.7,2.9-5.7,5.6-8.7,8.2c-0.9,0.8,0.2,2.1,1.2,1.6c1.9-1,3.8-2.3,5.5-3.6
	C-23,42.1-26.2,59.9-29.5,77c-1-1.7-1.9-3.4-2.9-5.1c-0.7-1.2-2.8-0.4-2.3,1c1.1,3,2.4,5.9,3.4,8.8c0.4,1.1,1.9,2.1,3,1.2
	c3.6-2.6,6.7-4.9,10.9-6.5c2.7-1,1.6-5.2-1.2-4.3c-1.9,0.6-4,1.5-5.9,2.5c1.6-8.4,3.2-16.8,5-25.2c1.9-9.1,4.3-18.3,5.9-27.5
	c1.5,3.2,3.3,6.2,5.5,9C-6.8,32.8-4.4,30.4-5.7,28.7z"/>
<path class="st0" d="M334,316.5c-3.3-9.4-7.8-18.1-12.6-26.9c-0.6-1-2.2-1.3-3-0.4c-6.5,7.2-12.8,14.4-19,21.9
	c-0.2,0.2-0.3,0.4-0.3,0.6c-0.8,0.5-0.8,2,0.3,2.2c4,0.9,8.1,1.8,12.1,2.5c-0.4,3.4-0.6,6.8-1.5,10.1c-1.4,4.8-3.7,9.4-6.6,13.4
	c-6,8.2-14.5,13.2-21.3,20.4c-1.6,1.8,0.4,4.5,2.6,3.3c9.3-5,18.3-13.7,24.2-22.5c4.4-6.5,8.3-16,6.4-24.1c1.7,0.3,3.5,0.6,5.2,0.9
	c0.4,5.3,1.2,10.5,0.3,15.8c-0.8,4.5-2.6,8.9-4.7,12.9c-4,7.7-8.5,14.8-14.2,21.3c-1.6,1.7,0.4,4.6,2.6,3.3
	c7.9-4.7,12.8-15.7,16.5-23.7c4.4-9.4,5.3-19,2.9-29c2.1,0.4,4.2,0.7,6.3,1.1c1,0.2,1.8-0.4,2.2-1.1
	C333.5,318.5,334.4,317.7,334,316.5z M302.9,311.9c5.7-5.9,11.2-12,16.6-18.2c4.1,7,7.4,14.5,10.4,22
	C320.9,314.4,311.9,312.9,302.9,311.9z"/>
<path class="st0" d="M-44.2,18.5c-13.8-0.7-27.3-2.9-40.6-6.6c-1.4-0.4-3.1,1-2.6,2.6c1.8,4.6,3.6,9.1,5.5,13.6
	c-17.8,1.1-28.7,18.2-30.6,34.9c-2.2,18.6,6.9,36.6,24,44.6c2.3,1.1,4.5-1.1,3.4-3.4c-10.4-21.3-8.8-46.7,9.6-62.5
	c1.3,3.7,2.5,7.5,3.7,11.2c0.5,1.6,2.9,2.2,3.8,0.5c6.2-12.1,14.7-22.7,25.2-31.4C-41.2,20.8-42.5,18.6-44.2,18.5z M-69.2,47.2
	c-1.1-3.2-2.1-6.4-3.1-9.6c-0.4-1.3-1.9-2-3.1-1.3c-22.2,13-24.9,41.1-16.9,63.4c-10.8-7.4-16.8-19.7-16.1-33.3
	c0.8-16.2,10.9-34.3,28.9-34.4c1.7,0,2.2-1.7,1.7-2.9c0-0.2,0-0.5-0.1-0.8c-1.3-3.8-2.6-7.6-4-11.4c10.8,2.7,21.7,4.5,32.7,5.3
	C-57.1,29.6-63.9,37.9-69.2,47.2z"/>
<path class="st0" d="M45.9,246.5c-5.3-0.3-10-1.9-15.2-2.7c-1.8-0.3-2.9,2-1.3,3.1c2.8,1.9,6.2,3,9.7,3.9
	c-17.4,7.5-38.9,5.2-53.2-8.3c-8-7.5-8.2-18.1-6.7-28.3c1.1-7.6,2.5-15.1,5.2-22.2c0.5,1.6,1.3,3,2.2,4.3c1.8,2.4,5.8,0.2,4.1-2.4
	c-2.3-3.6-2.8-6.8-2.5-11c0.1-1.8-2-2.7-3.4-1.9c-3.3,1.7-6.8,3.2-10,5c-1.4,0.8-0.5,3.1,1.1,2.6c2.1-0.6,4.1-1.3,6.1-2
	c-6.1,7.8-7.5,19.2-8.8,28.6c-1.5,11.1-0.6,22.7,7.9,30.9c13.9,13.5,39.6,17.5,57.4,9.1c-0.3,1.1-0.7,2.2-1.3,3c-2,1-2.4,4,0.3,4.9
	c2.5,0.8,4.4-0.9,5.3-3.2c1.3-3.4,2.3-6.1,5-8.7C49.6,249.4,48.2,246.6,45.9,246.5z"/>
<path class="st0" d="M228.7,140c-4.9,0.9-7.2,9.3-9.1,13c-1.7,3.3,3.5,6.6,5.6,3.5c0.6-0.9,1.2-1.7,1.8-2.6
	c0.1,24.8,10.6,52.1,31,66.4c1.1,0.8,2.2-0.7,1.3-1.6c-9.6-10.1-17.8-20.2-22.8-33.4c-4.1-10.8-5.7-22.3-4.9-33.8
	c0.8,1.1,1.6,2.2,2.5,3.3c2.9,3.4,8-0.2,5.7-4.1C237.8,147.3,233.8,139.1,228.7,140z"/>
<path class="st0" d="M-45.9,391.7c-1-1.1-2.9,0.3-2.1,1.6c9.8,15.4,9.1,35.3-4.8,48c-12.7,11.6-35,14.8-47.8,1.9
	c-11.5-11.6-11.7-29.6-2.9-42.9c4.6-6.9,11.5-12.3,19.1-15.6c5.1-2.3,11.8-4.5,17.9-4.3c-2.3,1.1-4.5,2.6-6.2,4.2
	c-2.8,2.6,0.8,6.8,3.9,5.1c2.7-1.5,5.4-2.9,8.1-4.2c1.4-0.7,3.6-1.3,5-2.4c0.1,0,0.2-0.1,0.3-0.1c1.5-0.5,2-2.4,1.1-3.5
	c-0.2-0.8-0.5-1.6-0.7-2.3c-0.9-2.6-1.7-5.3-2.7-7.9c-1.5-3.6-7.3-2.1-5.9,1.6c0.5,1.4,1.2,2.8,1.9,4.2
	c-12.6-3.6-28.9,3.4-38.3,10.6c-12.7,9.8-20.2,26.3-17.4,42.3c2.5,14.5,14.4,27,29.1,29.2c15.6,2.3,34.8-4.3,44.4-17.1
	C-33.3,425.9-34.3,405.3-45.9,391.7z"/>
<path class="st0" d="M214,218c-9.5-1.6-19.2-2.1-28.7-4.1c-8.9-1.8-17.6-4.5-26.3-7c-0.7-1.5-1.6-3-2.5-4.5c2.2,0.2,4.3,0.3,6.5-0.2
	c6.7,2.9,14.3,4.6,21.3,6.2c8.4,1.9,17.1,3.6,25.7,4.1c2.5,0.2,2.4-3.6,0-3.9c-8.7-1-17.3-1.8-25.8-3.5c-5.8-1.2-11.6-2.9-17.4-4.4
	c2.8-1.4,5.3-3.4,8.2-4.7c3.3-1.5,0.9-6.5-2.4-5.7c-3.4,0.8-5.7,3.4-8.8,4.8c-4.4,2.1-9.4,0.7-13.9-0.4c-3-0.8-5,2.9-3,5.1
	c4.9,5.4,7.1,11.8,11.2,17.5c0.9,1.3,2.8,0.8,2.9-0.8c0.2-2.3-0.2-4.7-1-7c7.8,3.3,16.1,5.6,24.3,7.6c9.3,2.2,19.5,4.6,29.1,4.6
	C215.7,221.9,216.3,218.4,214,218z"/>
<path class="st0" d="M7.2,355.3c-6.2-4.1-14.2-6.5-21.3-8.5c-7.6-2.1-15.5-3.7-23.5-3.7c-0.8,0-1,1.2-0.2,1.4
	c10.4,2.2,20.6,4.3,30.4,8.3c5,2,11.1,4.3,14.9,8.3c3.9,4,6.2,10,7.2,15.4c2.2,11.3-3.2,23.1-15.4,25c-4.9,0.8-11-0.5-13.9-4.9
	c-4.1-6.2,1.1-12.8,4.2-18.1c0.2,2.5,0.9,5.1,2.2,6.9c1.9,2.7,6.7,1.2,5.6-2.4c-0.5-1.6-1.2-3-1.5-4.7s-0.1-3.3-0.1-5
	c0-2.1-2.4-3.6-4.2-2.4s-3.9,2-6,2.6c-1.8,0.5-3.8,0.6-5.4,1.8c-0.8,0.6-1,1.9,0,2.4c1.4,0.7,3.1,0.9,4.8,0.7
	c-6.9,9-8.2,22.2,4.5,26.8c10.9,3.9,23.5-2.9,27.8-13.4C22,380.6,17.8,362.3,7.2,355.3z"/>
<path class="st0" d="M-7.4,107.4c-3.1-1.7-6.3-3.4-9.4-5.1c-2.1-1.1-4.9-0.2-5.5,2.2c-1.1,4.7-2.7,9.3-4.6,13.8
	c-1.5,3.7,4.4,5.8,6.3,2.6l0,0c1.3-2.4,2.4-4.9,3.4-7.5c5.9,13.6,3.8,28.5-3.3,41.8c-0.5,1,0.8,2.2,1.7,1.3
	c10.2-11.8,11.4-29.2,6-43.5c0.6,0.3,1.1,0.6,1.7,0.9C-7,116.4-3.1,109.7-7.4,107.4z"/>
<path class="st0" d="M247.5,2.3c-6,1.5-12.1,3.1-18.1,4.6c-3.7,0.9-3.7,7.2,0.5,7.1c2.6-0.1,5-0.4,7.4-0.9
	c-20.9,30.1-32.4,69-22.9,105.1c-1.6-1.1-3.2-2.2-4.8-3.1c-2.7-1.4-5.1,1.5-3.4,3.9c2.6,3.7,6.6,6.6,10.1,9.5
	c2.3,1.9,5.5-0.3,5.8-2.9c0.4-4.4,2.2-8.1,5.3-11.2c3.4-3.4-1.5-9-5.1-5.6c-1.8,1.7-3.3,3.7-4.5,5.8c-2.3-17.5-2.4-34.8,1.8-52.2
	c4.2-17.9,12.2-35.8,24.2-50.1c-0.1,1.4-0.1,2.8,0,4.2c0.4,6,9.1,5.5,8.3-0.6c-0.4-3.3-0.4-6.4,0.1-9.7
	C252.5,3.9,249.8,1.7,247.5,2.3z"/>
<path class="st0" d="M196,18.9c-9.2-2.9-17.9-7.1-25.9-12.5c-1.6-1.1-4,0.3-3.9,2.2c0.2,3.6,0.3,7.3,0.4,10.9
	c-18.7-1.7-36.8-6.3-54.1-13.7c-1.5-0.6-3.9,0.9-2.6,2.6c3.6,4.8,7.6,9.1,12.2,12.8c-4.3,0.8-8.6,1.8-12.8,3.1
	c-1.1,0.4-1.5,1.4-1.4,2.3c-0.1,0.5,0.1,1,0.7,1.3c0.3,0.3,0.8,0.5,1.3,0.4c17.5,5.6,35.5,8.3,53.8,8.4c0,5.2,0.4,10.3,1.3,15.4
	c0.3,2,3,1.9,3.9,0.5c7.8-11,16.8-20.6,27.7-28.5C198.7,22.7,198.5,19.7,196,18.9z M168.3,46c-0.6-3.7-0.8-7.4-0.8-11.1
	c0-1-0.9-1.8-1.8-1.8c-17.3,0.2-34.5-1.9-51.2-6c4.1-1.2,8.2-2.3,12.4-3.1c1.7-0.3,1.5-2.5,0.4-3.3c-3.4-2.5-6.6-5.2-9.4-8.3
	c16.3,6.9,33.7,11.2,51.4,12.5c1.3,0.1,2.6-1.3,2.6-2.6c-0.1-2.9-0.2-5.8-0.3-8.6c5.6,3.7,11.6,6.7,17.9,9.1
	C181.5,29.6,174.3,37.4,168.3,46z"/>
<path class="st0" d="M222.2,261.7c-6,2-11.5,1.9-17.6,1c-2.9-0.4-4.2,3.5-1.2,4.5c2.8,0.9,5.7,1.3,8.6,1.5
	c-11.6,10.8-28.9,18.1-44.7,15c-3-0.6-6.2-1.8-9-3.6c0.1,0,0.2-0.1,0.3-0.1c6.9-2.8,14.8-8.8,14.1-17.1c-0.6-7.1-8.1-12.3-14.9-11.6
	c-7.6,0.7-13.3,8.2-13.8,15.5c-0.3,3.7,0.7,7.4,2.6,10.6c-6.3-0.1-12.7-2.2-17.3-6.4c-2.6-2.3-4.7-5.5-5.9-8.9
	c9.5-3.1,17.5-11.7,19.9-22.5c0.2-1.1-0.2-2.3-1.2-2.9c-15.3-8.5-30.1,6.9-26.9,22c-4.8-0.2-9.5-2.1-13.4-6
	c-2.1-2.2-3.7-4.7-4.6-7.3c4.9-1.2,9.7-3,13.5-5.1c6.2-3.3,15.3-11.2,12.8-19.4c-2.7-8.6-15-6-20.7-2.4
	c-8.5,5.3-12.3,14.4-11.3,23.1c-6.9,1.5-14,0.6-16.5-7.6c-5.2-17.1,14-26.5,26.5-32.1c1.1-0.5,0.3-2.4-0.9-2
	C86,205,67.7,214.1,70.7,232.7c1.9,12.1,11.6,14.7,21.7,13.5c1.5,4.5,4.3,8.7,8.6,11.9c5,3.8,10.3,5.3,15.5,5.1
	c5.7,13,19.8,20.4,33.5,18.9c2,2.1,4.4,3.9,6.9,5.1c20.1,10,46.6-2,60.4-17.2c0.4-0.4,0.6-0.9,0.6-1.4c0.1,0,0.2,0,0.4,0
	c-1.2,4.5-1.2,9.3-0.1,13.8c1.1,4.4,7.6,2.5,6.7-1.9c-1-5.3-0.5-9.8,1.1-14.9C226.8,263.3,224.4,261,222.2,261.7z M99.2,230.6
	c2.1-3.1,5.1-5.7,8.6-7c3.3-1.3,10.2-2.5,7.5,3.1c-3.2,6.5-10.5,10-16.9,12.6c-0.7,0.3-1.4,0.6-2.1,0.8
	C96.2,236.9,97.1,233.6,99.2,230.6z M123.3,249.1c2.3-5.4,8.8-9.3,14.6-8.4c-1.6,8.6-8,14.9-15.6,17.1
	C121.8,254.9,122.1,251.9,123.3,249.1z M153.9,276.4c-2-2.3-3.3-5.1-3.4-8.4c-0.4-8.4,10.9-17.2,16.5-7.5
	C171.6,268.3,160.9,274.4,153.9,276.4z"/>
<path class="st0" d="M277.5,297.8c-25.8-6.8-54-0.5-70.2,21.8c-4.8,6.7-8.7,15.2-9.2,23.8c-8.2,6.6-14.9,15.5-19,25
	c-5.9,13.5-8.3,29.8-2.9,43.9c3.3,8.7,9.2,16.5,17,21.4c-4.1,0.5-8.2,1.4-12.1,3c-3,1.2-1.9,5.6,1.4,4.9c9.2-1.8,17.8-2.7,27.2-1.3
	c4.1,0.6,5.5-4.6,1.7-6.2c-5.3-2.2-6.7-7.3-6.4-12.5c0.2-3.5-5.2-4.1-6.1-0.8c-1.2,4.5-0.2,8.9,2.2,12.5c-0.1,0-0.2,0-0.3,0
	c-31.6-15.1-25.4-60.4-2.3-82.7c0.3,1.7,0.8,3.4,1.5,5.1c4.5,10.6,15.7,16.3,26.8,17.2c11.2,0.9,24.2-3.6,27.5-15.4
	c3-10.9-5.8-19.8-15.5-22.9c-11.5-3.7-22.6-1.8-32.4,3.4c1.3-4.8,3.6-9.4,6.3-13.2c13.9-20.3,40.4-26.8,63.7-23.1
	C278.9,301.8,279.9,298.5,277.5,297.8z M218.7,338.9c9.4-2.3,22.5-1.5,29.3,6.5c4.1,4.8,3.1,11.3-0.9,15.7
	c-3.9,4.3-9.9,5.8-15.5,5.8c-9,0-19.6-4-24-12.5c-1.6-3-2.2-6.3-2.1-9.6C209.6,342.1,214,340,218.7,338.9z"/>
<path class="st0" d="M154.3,368c3.9,1.8,7.2-3.9,3.4-5.8c-5.8-2.8-11.8-4.3-18.2-4.5c-1.3,0-3,1.1-3.2,2.4c-0.9,6-1.9,12-2.7,18
	c-0.4,3.1,4,5.9,5.6,2.4c1.7-3.7,3.1-7.5,4.1-11.4c16.1,20.7,10.9,49.1,0.8,71.8c-0.6,1.3,1.2,2.4,1.9,1.1
	c12.3-23.4,19-54.4,1.5-76.5C149.8,366.1,152,367,154.3,368z"/>
<path class="st0" d="M169.4,335.4c-4-4.4-8.1-9.1-12.7-13c-4.1-3.5-9.2,1.7-5.8,5.8c1,1.3,2.1,2.5,3.3,3.7
	c-16.4-3.3-32.8-9-48.6-14.1c-18.1-5.9-35.9-12.5-53.6-19.4c-2-0.8-3.5,2.6-1.5,3.5c17.2,8,34.8,15,52.7,21.2c9,3.1,18.1,6,27.2,8.8
	c3.5,1,7,2,10.5,2.9c-4,1.2-3,7.6,1.3,7.6c8.1,0,16.3-0.2,24.4,0.1C170.2,342.5,171.7,337.9,169.4,335.4z"/>
<path class="st0" d="M179.4,308.4c-8.2-4.3-18.2-6.1-27.1-8.8c-9.5-2.9-19-5.8-28.5-8.6c-15.1-4.5-30.2-9.5-45.6-13.1
	c2.3-1,4.5-2.1,6.5-3.3c3.5-2.2,1.3-7.8-2.8-6.7c-6.7,1.7-13.2,5.4-19.5,8.1c-2.8,1.2-2.3,5.4,0,6.7c6,3.6,11.9,7.7,18.1,11
	c2.3,1.2,4.8-1.8,2.8-3.7c-3.1-2.9-6.5-5.6-9.8-8.3c15.6,5.9,31.8,10.4,47.6,15.3c9.5,2.9,19,5.8,28.5,8.7c9.2,2.8,18.9,7,28.4,7.9
	C180.8,313.9,181.8,309.7,179.4,308.4z"/>
<path class="st0" d="M60.3,337.9c-2.7-2.8-4.9-5.7-6.8-9.2c-1-1.8-3.9-2.8-5.6-1.5c-0.4,0.3-0.9,0.7-1.3,1c-0.7,0.2-1.2,0.7-1.6,1.3
	c-4.6,3.9-8.5,8.4-11.2,13.9c-1.6,3.2,1.9,8,5.4,5.4c1.9-1.4,3.7-2.9,5.3-4.6c0.1,3,0.4,6,1,8.8c0.7,3.2,4.8,2,5.2-0.7
	c0.5-4,0.5-8.2,0.5-12.3c1,1.3,2.1,2.5,3.3,3.6C58.3,347.4,64,341.8,60.3,337.9z"/>
</svg>
