<?xml version="1.0" encoding="utf-8"?>
<!-- Generator: Adobe Illustrator 23.0.0, SVG Export Plug-In . SVG Version: 6.00 Build 0)  -->
<svg version="1.1" xmlns="http://www.w3.org/2000/svg" xmlns:xlink="http://www.w3.org/1999/xlink" x="0px" y="0px"
	 viewBox="0 0 750 500" style="enable-background:new 0 0 750 500;" xml:space="preserve">
<style type="text/css">
	.st0{fill:url(#SVGID_1_);}
	.st1{opacity:0.5;}
	.st2{fill:url(#SVGID_2_);}
	.st3{clip-path:url(#SVGID_4_);}
	.st4{opacity:0.6;}
	.st5{fill:url(#SVGID_5_);}
	.st6{fill:#FFFFFF;}
	.st7{fill:url(#SVGID_6_);}
	.st8{fill:url(#SVGID_7_);}
	.st9{fill:url(#SVGID_8_);}
	.st10{fill:url(#SVGID_9_);}
	.st11{fill:url(#SVGID_10_);}
</style>
<g id="BACKGROUND">
	<linearGradient id="SVGID_1_" gradientUnits="userSpaceOnUse" x1="375" y1="14.0865" x2="375" y2="528.8815">
		<stop  offset="0" style="stop-color:#E5F0F2"/>
		<stop  offset="1" style="stop-color:#D1E1E5"/>
	</linearGradient>
	<rect class="st0" width="750" height="500"/>
</g>
<g id="OBJECTS">
	<g class="st1">
		<g>
			
				<image style="overflow:visible;" width="116" height="100" xlink:href="DDA76FFD.png"  transform="matrix(1 0 0 1 552.6619 346.3381)">
			</image>
			
				<image style="overflow:visible;" width="116" height="100" xlink:href="DDA76FFF.png"  transform="matrix(1 0 0 1 413.6619 346.3381)">
			</image>
		</g>
		<g>
			
				<image style="overflow:visible;" width="109" height="82" xlink:href="DDA76FFA.png"  transform="matrix(1 0 0 1 551.6619 355.3381)">
			</image>
			
				<image style="overflow:visible;" width="109" height="82" xlink:href="DDA76FFB.png"  transform="matrix(1 0 0 1 421.6619 355.3381)">
			</image>
		</g>
	</g>
	<g>
		<linearGradient id="SVGID_2_" gradientUnits="userSpaceOnUse" x1="374.4619" y1="520.179" x2="374.4619" y2="158.8007">
			<stop  offset="0" style="stop-color:#D9E7E8"/>
			<stop  offset="1" style="stop-color:#F9F9F9"/>
		</linearGradient>
		<rect x="0.8" y="-0.4" class="st2" width="747.4" height="499"/>
		<g>
			<defs>
				<rect id="SVGID_3_" x="0.8" y="-0.4" width="747.4" height="499"/>
			</defs>
			<clipPath id="SVGID_4_">
				<use xlink:href="#SVGID_3_"  style="overflow:visible;"/>
			</clipPath>
			<g class="st3">
				<g>
					<g class="st4">
						
							<image style="overflow:visible;" width="914" height="310" xlink:href="DDA77005.png"  transform="matrix(1 0 0 1 -95.3381 280.3381)">
						</image>
					</g>
					<g>
						
							<linearGradient id="SVGID_5_" gradientUnits="userSpaceOnUse" x1="660.311" y1="130.5132" x2="599.2519" y2="444.2902" gradientTransform="matrix(-0.9971 7.590000e-02 -5.770000e-02 -0.7579 967.693 659.727)">
							<stop  offset="0" style="stop-color:#3F7EA6"/>
							<stop  offset="1" style="stop-color:#A8D0DA"/>
						</linearGradient>
						<path class="st5" d="M518.7,391.9c-156.3-15.8-211.5,42.9-337.8,29c-134.2-14.8-61.4-132.4-263.8-113
							c32,49.8,78,183,79.8,234.6c287.2,3.4,482.4-0.9,760.7-31.8c-12.2-9.7-17.9-30.4-26-38.5C713.5,453.9,649.6,405.1,518.7,391.9
							z"/>
					</g>
				</g>
				<g>
					<path class="st6" d="M837.8,434c-25.3-21.1-76.5-31.7-115.1-36.9c-90.6-12.2-187.4-8.6-281-5.1c-10.2,0.4-20.4,0.8-30.5,1.1
						c-98.5,3.5-211.7,5.3-308.4-17.5c-53-12.5-98.1-32.4-130.2-57.5C-59.7,293-76,264.9-74.7,236.9l2.6,0
						c-2.6,56.9,68.1,112.2,176,137.6c96.2,22.6,209,20.8,307.1,17.3c10.1-0.4,20.3-0.7,30.5-1.1c93.8-3.5,190.9-7.2,281.9,5.1
						c39,5.2,90.9,16,116.6,37.5L837.8,434z"/>
				</g>
				<g>
					<g class="st4">
						
							<image style="overflow:visible;" width="1188" height="254" xlink:href="DDA77007.png"  transform="matrix(1 0 0 1 -351.3381 -107.6619)">
						</image>
					</g>
					
						<linearGradient id="SVGID_6_" gradientUnits="userSpaceOnUse" x1="7.6196" y1="-281.6236" x2="314.2588" y2="100.7292" gradientTransform="matrix(1.0848 -1.930000e-02 -1.930000e-02 1.0044 -59.4887 13.443)">
						<stop  offset="0" style="stop-color:#3F7EA6"/>
						<stop  offset="1" style="stop-color:#A8D0DA"/>
					</linearGradient>
					<path class="st7" d="M-187.9,49.6c66,13.9,144.6,68.9,289.1,60.9c105.9-5.9,181.8-51.7,215.1-63.6
						c28.2-10.1,71.4-15.1,106.7-12.2C493,40.5,508,69.9,545.4,89.9c45.4,24.4,132.5,44.9,229.6,30C738.9,59.1,720-3.8,718.6-67.6
						c-123.9,6-247.4,17.8-370.4,29.6C178.5-21.8,8.9-5.5-160.7,10.7c-25.4,2.4-223.9,19.4-211.8,26.4c5.3,3.1,73.6-0.3,89,0.4
						C-248.9,39.3-216.4,43.6-187.9,49.6z"/>
				</g>
				<g>
					<g>
						
							<image style="overflow:visible;" width="1066" height="393" xlink:href="DDA7700A.png"  transform="matrix(1 0 0 1 -194.3381 -231.6619)">
						</image>
					</g>
					
						<linearGradient id="SVGID_7_" gradientUnits="userSpaceOnUse" x1="555.4676" y1="131.4545" x2="555.4676" y2="707.4646" gradientTransform="matrix(-0.7268 0.6868 -0.6868 -0.7268 934.7576 -123.9085)">
						<stop  offset="0" style="stop-color:#3F7EA6"/>
						<stop  offset="1" style="stop-color:#303956"/>
					</linearGradient>
					<path class="st8" d="M810,21.8c2.5,16.2-9.4,32.3-30.5,45.6c-37.4,23.6-173.2,29.4-236.8-9.1c-45.8-27.8-24.2-63-90.1-83.1
						c-20.4-6.2-78.3-9.1-99.3-15C298.7-55,223-48.9,172.4-29.2c-50.6,19.8-77.3,50.8-81,81.2c-2.1,17.8,2.7,36.2-10.6,53
						c-13.9,17.6-48.2,31.7-87,35.6c-5.9,0.6-12.1,1-17.8,0.1c-7.6-1.2-12.7-4.3-17.4-7.3c-46.8-30-93.7-60.1-140.5-90.1
						C33-17.4,208.7-104.5,381.4-190.4C472.7-143.3,799.1-50.2,810,21.8z"/>
				</g>
				<g>
					<g>
						
							<image style="overflow:visible;" width="627" height="392" xlink:href="DDA7700B.png"  transform="matrix(1 0 0 1 276.6619 194.3381)">
						</image>
					</g>
					
						<linearGradient id="SVGID_8_" gradientUnits="userSpaceOnUse" x1="594.563" y1="365.2892" x2="661.4818" y2="506.9997" gradientTransform="matrix(0.9978 -6.610000e-02 6.610000e-02 0.9978 -21.242 41.3005)">
						<stop  offset="0" style="stop-color:#3F7EA6"/>
						<stop  offset="1" style="stop-color:#303956"/>
					</linearGradient>
					<path class="st9" d="M433.9,427.6c38.5-11.3,85.6-13.3,130.5-16.3c44.9-3,92.3-7.8,124.6-22.8c31.5-14.6,42.7-36.1,54.8-56.1
						c27.2-44.9,65.8-88.2,114.7-128.8C826.5,314.2,781.9,423.9,732.9,533c-0.5,1.2-1.2,2.5-3.1,3.4c-2.4,1.1-6.2,1.1-9.5,1
						c-37.7-3.3-81.6-1.2-120-1.7c-40-0.6-80-1.1-120-1.7c-40.9-0.6-81.9-1.1-122.8-1.7c-16.6-0.3-22.8-0.4-26.7-8.3
						c-3.8-7.5-2.5-15.3-1.2-23C338.3,449.6,412.5,433.8,433.9,427.6z"/>
				</g>
				<g>
					<g>
						
							<image style="overflow:visible;" width="899" height="158" xlink:href="DDA7700D.png"  transform="matrix(1 0 0 1 -70.3381 401.3381)">
						</image>
					</g>
					
						<linearGradient id="SVGID_9_" gradientUnits="userSpaceOnUse" x1="392.8091" y1="541.4786" x2="342.0079" y2="369.6188" gradientTransform="matrix(1.0322 1.160000e-02 1.310000e-02 -1.1642 -37.4856 1004.6583)">
						<stop  offset="0" style="stop-color:#D9E7E8"/>
						<stop  offset="1" style="stop-color:#F9F9F9"/>
					</linearGradient>
					<path class="st10" d="M-6.8,456.7c39.9-13.8,88.5-19.3,136-19.2c25.4,0,50.8,1.6,75.6,4.6c30.4,3.7,59.7,9.7,89,15.5
						c75,14.9,151.1,29.2,230.3,35.7c75.4,6.2,152.1,5.3,228.4,4.4c-0.3,7.5-0.7,15.1-1,22.6c-135.3,4.8-271.1,0.1-406.6-2.5
						c-80.1-1.5-160.2-2.3-240.4-2.8c-39.5-0.2-79.1-0.4-118.7-0.6c-20.1-0.1-65.9,1.8-58.8-15.3C-65.9,482.1-32.8,465.7-6.8,456.7z
						"/>
				</g>
				<g>
					<path class="st6" d="M872,210.1c-54-3.7-105.2-17.2-140.5-36.8c-20.8-11.6-36.3-25.3-51.4-38.5c-18.6-16.4-37.8-33.3-66.9-46
						c-40.2-17.6-99.7-27.5-177-29.3c-29.1-0.7-58.7-0.3-87.3,0c-34.4,0.4-70,0.9-105-0.5c-72.8-2.8-137.7-13.6-187.7-31
						C-0.5,8.3-38.5-21.3-45.5-51.1l2.6-0.1C-36.1-21.8,1.6,7.5,57.8,27C107.4,44.3,171.9,55,244.2,57.8
						c34.8,1.4,70.3,0.9,104.7,0.5c28.7-0.4,58.4-0.7,87.5,0c77.8,1.8,137.9,11.8,178.6,29.6c29.4,12.9,48.7,29.9,67.4,46.4
						c15,13.2,30.5,26.8,51.1,38.3c34.9,19.4,85.5,32.7,138.9,36.4L872,210.1z"/>
				</g>
				<g>
					<g>
						
							<image style="overflow:visible;" width="507" height="180" xlink:href="9332F96.png"  transform="matrix(1 0 0 1 -14.3381 -83.6619)">
						</image>
					</g>
					
						<linearGradient id="SVGID_10_" gradientUnits="userSpaceOnUse" x1="635.261" y1="369.7382" x2="433.1725" y2="203.1516" gradientTransform="matrix(-2.390000e-02 -0.9997 -0.9997 2.390000e-02 498.8327 495.1758)">
						<stop  offset="0" style="stop-color:#D9E7E8"/>
						<stop  offset="1" style="stop-color:#F9F9F9"/>
					</linearGradient>
					<path class="st11" d="M273.8,7.8C214.3,19,200.5,75.9,96.5,70C17.1,65.6-32.3-3.1-10.6-30.4c1.1-1.4,74-9.8,82.4-10.2
						c79.7-3.8,160-4.5,239.9-2.2c38.3,1.1,77,2.5,115.1,4.6c9.8,0.5,5.5,0.2,14.7,4.3c10.8,4.8,31,24.5-7.6,38.3
						C392.6,19.1,327.5-2.4,273.8,7.8z"/>
				</g>
			</g>
		</g>
	</g>
</g>
<g id="DESIGNED_BY_FREEPIK">
</g>
</svg>
