<?xml version="1.0" encoding="utf-8"?>
<!-- Generator: Adobe Illustrator 23.0.0, SVG Export Plug-In . SVG Version: 6.00 Build 0)  -->
<svg version="1.1" id="OBJECTS" xmlns="http://www.w3.org/2000/svg" xmlns:xlink="http://www.w3.org/1999/xlink" x="0px" y="0px"
	 viewBox="0 0 27.3 60.7" style="enable-background:new 0 0 27.3 60.7;" xml:space="preserve">
<style type="text/css">
	.st0{display:none;fill:#222221;}
	.st1{display:none;}
	.st2{display:inline;fill:#222221;}
	.st3{fill:#222221;}
</style>
<path class="st0" d="M124.4,361.9C124.5,361.9,124.5,361.9,124.4,361.9C124.4,362,124.4,362,124.4,361.9z"/>
<path class="st0" d="M90.2,365.5C90.5,365.5,90.4,365.5,90.2,365.5L90.2,365.5z"/>
<g class="st1">
	<path class="st2" d="M316.4-11.3c-4,0.8-8.7,1.4-12.4-0.7c-1.8-1-4.1,1.1-2.9,2.9c2.7,4.3,4.8,8.2,5.5,13.2
		c0.3,2.1,3.6,1.5,3.6-0.5c-0.1-2.8-0.6-5.6-1.5-8.3c0.9,1,1.9,1.9,3,2.5c1.7,0.9,2.9-1.4,1.4-2.5c-0.8-0.6-1.7-1.1-2.4-1.8
		c-0.2-0.2-0.5-0.4-0.7-0.7c2.4,0.1,4.9-0.1,7.4-1C319.3-8.7,318.5-11.7,316.4-11.3z"/>
	<path class="st2" d="M327.2,1.8c-3.4-0.3-6-0.9-9-2.5c-0.9-0.5-2,0.8-1.2,1.5c2.7,2.3,6.6,3.9,10.2,3.7C329,4.4,328.9,2,327.2,1.8z
		"/>
	<path class="st2" d="M340.5-0.7c-1.2,0.6-2.4,1.2-3.7,1.7c-1.2,0.4-2.5,0.6-3.7,1.1c-0.6,0.2-0.6,1,0,1.3c2.8,1.1,6.5,0.2,8.9-1.3
		C343.7,0.9,342.2-1.6,340.5-0.7z"/>
	<path class="st2" d="M351.2-11c-1.5,1.8-2.7,3.6-4.6,5c-1.4,1.1-0.2,3.4,1.4,2.5c2.2-1.3,4.5-3.1,5.7-5.4
		C354.6-10.5,352.4-12.4,351.2-11z"/>
	<path class="st2" d="M356.8-23.2c-0.2,1-0.2,2.1-0.4,3.1c-0.2,1-0.4,2-0.6,3c-0.2,1,1.1,1.5,1.7,0.7c1.3-1.8,2.3-4.2,2.3-6.4
		C359.9-24.5,357.2-25,356.8-23.2z"/>
	<path class="st2" d="M355.3-35.9c-1.4-1.3-3.2,0.6-2.1,2.1c1.2,1.5,2,3,2.4,4.8c0.4,1.3,2.4,1.1,2.4-0.3
		C358-31.7,357-34.2,355.3-35.9z"/>
	<path class="st2" d="M349.5-40.6c-1.3-0.6-2.7-1-4.1-1.4c-1.4-0.4-2.8-0.9-4.2-1c-1.7-0.1-2.3,2.4-0.9,3.2c1.3,0.7,2.7,1,4.1,1.3
		c1.4,0.4,2.8,0.7,4.2,0.9C350.3-37.5,350.9-40,349.5-40.6z"/>
	<path class="st2" d="M332.6-44c-1.5-0.5-2.8-0.8-4.3-0.8c-1.7-0.1-2.1,2.7-0.4,3c1.5,0.3,2.9,0.3,4.4,0.3
		C333.6-41.6,333.9-43.5,332.6-44z"/>
	<path class="st2" d="M318.4-48c-1.3-0.8-2.4-2-3.4-3.2c-1.3-1.6-4.2,0.6-2.9,2.3c1.4,1.8,3,2.9,5.2,3.5
		C318.9-45,319.8-47.2,318.4-48z"/>
	<path class="st2" d="M310.7-57.2c-0.4-1.9-0.6-3.6-0.6-5.6c0.1-2-3.1-2.5-3.6-0.5c-0.5,2.4-0.1,5.3,1.4,7.3
		C308.9-54.8,311.1-55.5,310.7-57.2z"/>
	<path class="st2" d="M313.8-77.5c-3.1,1.1-4.9,4.3-4.4,7.5c0.2,1.3,2.3,1.3,2.6,0c0.4-2,1.4-3.3,3.1-4.4
		C316.7-75.3,315.7-78.2,313.8-77.5z"/>
	<path class="st2" d="M328.3-84.3c-2.3,0.4-4.7,1.3-6.8,2.2c-1.6,0.7-0.4,3.1,1.1,2.7c2.3-0.5,4.6-1.3,6.8-2.3
		C330.9-82.4,329.8-84.6,328.3-84.3z"/>
	<path class="st2" d="M342.2-86c-1.8-0.1-3.7,0.1-5.5,0.1c-2,0.1-2,3.1,0,3.2c1.8,0.1,3.7,0.2,5.5,0.1
		C344.4-82.8,344.4-85.9,342.2-86z"/>
	<path class="st2" d="M363.2-82c-2.8-1-5.7-1.6-8.6-2.1c-1.6-0.2-2.3,2.1-0.7,2.5c2.8,0.7,5.4,1.6,8,2.7
		C364.2-77.9,365.6-81.2,363.2-82z"/>
</g>
<path class="st0" d="M122.8-87.4c-8-1.8-15.3-4.9-23-7.7c-2-0.7-2.9,2.1-1.4,3.2c2.6,1.8,5.4,3.4,8.3,4.7
	c-8.2,0.9-16.6,3.5-23.8,6.2C73.2-77.2,64-71.9,56-65.2c-13.2,11-26.5,30.8-24,49c0.1,1,1.7,0.9,1.9,0c2.6-8.8,4.3-17.1,9.2-25
	c4.8-7.8,11.2-14.9,18.5-20.4c7.7-5.8,16.5-9.7,25.8-12.5c7.7-2.3,15.5-3.1,23.3-4.4c-3.8,4.2-6.8,9.1-8.2,14.2
	c-0.8,3,3.3,4.7,4.9,2.1c2.4-3.9,4.3-8,7.2-11.6c2.8-3.4,6-6.1,9.3-8.8C125.7-84.1,124.7-87,122.8-87.4z"/>
<path class="st0" d="M-18.9,5.7c2.8-0.3,2.8-4.8,0-4.4c-6.5,0.7-12.8,0-18.7-2.9c-1.7-0.8-4.3,0.6-3.5,2.7c2.7,7.3,3.1,14.5,4.8,22
	c0.3,1.5,2.7,1.5,3,0c1.1-5,0.4-10.6-0.9-15.8c8.4,8.5,13.5,22.5,9.1,33.9c-2.7,6.9-10.7,10.7-17.5,12.2c-3.3,0.7-6.7,1-10.1,0.7
	c-3.8-0.3-7.3-1.7-11-2.1c-4.4-0.4-4.9,5.4-2,7.5c7.2,5.3,19.8,4.1,27.8,1.5c8.5-2.8,16.8-8.5,19-17.7c3-12.3-1.1-29.3-11.4-37.9
	C-26.7,6-22.9,6.1-18.9,5.7z"/>
<path class="st0" d="M103.5,71c-5.5-0.8-10.8-2.8-16.2-3.8c-1.7-0.3-3.1,1.7-1.8,3c1.2,1.2,2.7,2.2,4.2,3.1
	c-19.6,8.4-36.5,27.7-38.5,49c-0.1,1.3,1.7,1.3,2.1,0.3c8.1-19.5,20.7-34.4,39.9-42.5c-0.8,1.6-1.4,3.2-1.8,5
	c-0.9,4.1,5.4,5.9,6.4,1.8c0.9-4.1,3-7.5,6.5-9.9C106.3,75.6,106.5,71.4,103.5,71z"/>
<g class="st1">
	<path class="st2" d="M-18.5,96.8c-0.3,0.7-0.6,1.4-1,2.1c-5-12.2-16.9-20.1-30.7-19.6c-15.2,0.5-31,11.5-35.6,26.3
		c-0.3,0.8,1,1.7,1.6,0.9c8.4-10.8,16.9-20.9,31.6-22.2c11.5-1,24.3,5.3,28.1,16.4c-1.4-1-2.9-1.9-4.3-2.9c-3.6-2.4-6.9,3.4-3.4,5.7
		l10.6,7.1c1.4,0.9,3.9,0.4,4.6-1.2c1.4-3.1,2.9-6.2,4.3-9.3C-10.8,96.3-16.7,92.8-18.5,96.8z"/>
	<path class="st2" d="M-17.4,118.6c-0.2-1.1-1.7-1.5-2.1-0.3c-4.1,12.4-15.2,20.1-28,22.3c-6.6,1.2-13.8,0.2-19.6-3.5
		c-4.3-2.7-7-6.7-9.1-11.1c1.4,0.6,2.7,1.1,4.1,1.7c3.8,1.5,6.5-5,2.8-6.6c-3.5-1.5-7-3.1-10.4-4.6c-1.8-0.8-4.2-0.6-5.2,1.4
		c-1.6,3.2-3.1,6.7-3.8,10.2c-0.9,4.5,5.8,6.4,6.9,1.9c0.2-0.5,0.4-1.1,0.6-1.6c2.3,5,5.3,9.5,9.9,12.8c6.7,4.8,15.1,6.4,23.1,5.2
		C-35.6,144.5-15.4,133.8-17.4,118.6z"/>
</g>
<g class="st1">
	<path class="st2" d="M203.5,17.5c-9.8-6.9-20.3-13.1-30.5-19.4c-7.6-4.8-15.3-9.9-23.2-14.3c2.1,0.1,4.2,0,6.3-0.5
		c2.8-0.6,2-4.7-0.7-4.8c-6.3-0.3-11.4-1.4-16.6-5.1c-3.2-2.3-6.3,2.5-4,5.2c4.1,4.7,6.6,10.2,8.4,16c0.6,2,3.7,1.7,3.7-0.5
		c0-2.6-0.4-5-1-7.4c7.5,5.6,15.6,10.6,23.4,15.7c10.4,6.7,20.7,13.6,31.5,19.6C203.8,23.4,206.1,19.4,203.5,17.5z"/>
	<path class="st2" d="M217.1-5.5c-2.5-3.7-3.4-7.5-4-11.9c-0.4-3.3-5-3.4-5.2,0c-0.2,2.7,0.2,5.4,1.1,8c-9.2-5.4-19.1-10-28.4-14.9
		c-11.1-5.9-22.1-12-33.2-17.9c-1.9-1-3.3,1.6-1.6,2.8c10.7,7.3,21.8,13.8,33,20.2c7.3,4.2,14.8,8.6,22.5,12.3
		c-1.6,0.4-3.1,0.9-4.5,1.6c-1.6,0.8-0.8,3.4,0.9,3.4c5.6-0.1,10.7-0.8,16.4,0.5C216.1-0.9,218.5-3.4,217.1-5.5z"/>
</g>
<path class="st0" d="M313.7,283.7c-7.1,2.7-14.5,3.5-22,2.1c-1.6-0.3-2.4,2.1-0.7,2.5c4,1.1,7.9,1.5,11.9,1.4
	c-10.6,4.6-19.7,12.5-26.5,21.7c-8.9,12-15.6,29.2-13.2,44.3c0.4,2.2,4.2,2.2,4.5,0c1-7.2,1.4-14.3,3.5-21.3
	c2.1-7,5.2-13.6,9.4-19.6c6.9-9.9,16.4-17.1,26.8-22.9c-1.3,3.2-1.9,6.6-1.6,10.1c0.3,3.2,5.2,3.3,5.1,0c-0.3-5.7,1-10.5,4.7-14.9
	C316.9,285.7,315.8,282.9,313.7,283.7z"/>
<path class="st0" d="M-22.1,195.4c-11.8-8-25.9-15.1-40.5-14.2c-9.2,0.6-23,6.2-18.1,17.9c4.8,11.7,20.2,12.4,30.7,14.9
	c6.8,1.6,14.3,4.8,18.1,11c4.3,7,1.3,15.4-5,20.1c-7.6,5.6-18.1,3.7-25.6-1.1c-6.6-4.2-11.5-10.6-15.5-17.3
	c4.9,1.8,10.3,2.7,15.2,1.6c2.8-0.6,1.9-4.5-0.6-4.7c-6.2-0.6-11.5-1.1-17.1-4.1c-2.3-1.3-4.4,0.8-4.1,3.1c0.5,3.3,0.7,6.7,0.8,10
	c0,2.7-0.3,5.6,0.5,8.2c0.3,1,1.7,1.2,2.3,0.3c1.4-2.3,2-5.3,2.2-8.4c5.6,9.5,13.7,17.4,25,19.7c11.6,2.3,24.3-3.3,27.8-15.3
	c3.4-11.6-5.4-21.2-15.5-25.4c-6.1-2.6-12.8-3.2-19.2-4.6c-6.3-1.4-21.8-7.4-15.3-16.4c5.3-7.4,18.4-6,25.9-4.1
	c9.5,2.4,17.9,7.1,26.3,12C-21.9,199.8-20.1,196.8-22.1,195.4z"/>
<path class="st0" d="M164.7,310.6c-6.8-1.9-11.6-4.9-16.2-10.3c-1-1.2-3-0.5-3.4,0.9c-1.6,5.6-4.4,10.2-7.9,14.8
	c-1.1,1.4,1.2,3,2.4,1.9c3.2-3.1,5.5-6.7,7.4-10.6c4.8,18.9-13.8,32.8-30.6,35.5c-3.7,0.6-7.6,0.4-11.1-0.7c5-4.2,8.8-9.6,9.6-16.1
	c1.2-10.2-7.7-18.1-16.7-10.7c-7.5,6.1-8,18.8-1.7,25.9c0.2,0.3,0.5,0.5,0.8,0.8c-6.1,3.5-13.2,5.5-20.1,6.2
	c-6.7,0.7-15.6,0.3-21-4.4c9-2.2,18.1-7,18.9-15.7c1.2-11.9-12.9-12.9-20.4-7.6c-6.8,4.8-9.1,12.6-6.9,19.4
	c-10.3,0.8-22.3-3.6-22.8-15.5c-0.1-3.1-4.5-3-4.8,0c-1.2,13.1,12.4,21.1,24,21c1.8,0,3.9-0.2,6.1-0.5c1,1.3,2.2,2.6,3.5,3.7
	c10.4,8.2,27,5.4,38.5,0.9c2.9-1.2,6-2.7,8.8-4.5c10.2,5.6,25.4,1.7,34.5-3.7c11.2-6.7,18.4-19.1,15.3-31.6
	c3.5,2.9,7.8,4.9,12.2,5.5C166.3,315.5,167.6,311.4,164.7,310.6z M68.9,321.5c7.3,4-0.1,12.1-4.6,14.2c-3.5,1.6-7.4,2.8-11.3,3.5
	c-0.2-0.5-0.4-1-0.6-1.6C49.9,329.5,60,316.6,68.9,321.5z M95.9,331.6c-0.8-4-0.1-8.3,2.3-11.6c3.6-5.1,11.6-6.7,12.9,0.9
	c1.3,7.5-4.5,14.5-10.3,18.7C98.4,337.8,96.6,335.2,95.9,331.6z"/>
<path class="st0" d="M113.6,8.8C103,3.2,90.4,0.8,78.5,3.4c-6.3,1.4-12,4.2-16.9,8c-2.2-7.6-1.5-16.1,3.3-24.2
	c10.8-18.1,35-21.6,51.3-8.9c2,1.6,4.8-1.1,2.9-2.9C102.6-39.3,76.9-37,63.2-19.5C54.9-8.8,53.4,4,57.4,15.2
	c-8.6,8.9-13.1,21.2-9.9,33.4c-1.3-1.4-2.7-2.7-4.2-3.8c-1.5-1.1-3.6,1.1-2.6,2.6c4,5.8,8.1,11,11,17.4c1.2,2.6,5.4,1.3,5.3-1.4
	c-0.2-6.6,5.6-9.7,10.3-13c2.8-2,0.4-6.4-2.8-4.7c-4.3,2.2-8.4,5.2-10.9,9.2c-5.4-12.1-2.3-25.3,5.9-34.6c3,5.6,7.5,10.6,13.3,14.4
	c9,6,20.5,9.8,31.3,10.3c9.5,0.5,20.3-3.5,23.3-13.4C130.7,21.3,121.9,13.1,113.6,8.8z M103.4,39.8c-8.3-0.7-16.9-3.4-24.1-7.4
	c-7-3.9-12.5-9.5-15.7-16c2.5-2.1,5.4-3.9,8.5-5.3c8.9-4,19.1-4.3,28.4-1.9c7.8,2,18.9,6.5,22,14.7
	C126.7,35.4,112.1,40.5,103.4,39.8z"/>
<path class="st0" d="M231.7,59.1c-2.9-3-4.9-6.5-6.1-10.5c-0.4-1.3-2.1-1.8-3-0.8c-1.6,1.7-2.6,3.9-4,5.7c-1.6,2.2-3.4,4.3-5.3,6.3
	c-0.9,0.9,0.3,2.8,1.5,1.9c2.2-1.7,4.6-3.6,6.7-5.8c-1.8,6.8-6.3,14.7-11.7,17.4c-9.7,4.8-11.4-7-13.6-13.2
	c-1.1-3.1-3.4-9.2-7.8-7.3c-2.3,1-3.2,4.5-4.2,6.5c-1.7,3.5-3.1,7.9-5.4,10.9c-6.5,8.4-7.8-5.1-8.3-8.3c-0.4-2.7-1.1-5.3-3-7.4
	c-3.2-3.5-8.3-4.2-11.5-0.4c-3.1,3.8-8.4,20.2-15.5,16.9c-6-2.8-3.9-14.4-6.3-19.7c-1.1-2.3-4.9-0.7-4.1,1.7
	c1.9,6,0.7,12.8,4.2,18.3c2.3,3.6,6.6,5.7,10.8,4.2c5.4-1.9,8.3-8.2,11.1-12.8c2.2-3.6,5.7-9.8,8.9-3c1.7,3.5,0.7,7.9,2.2,11.6
	c1.7,4,5.8,7.5,10.3,5.9c5.5-2,7.6-10.1,9.9-14.8c0.3-0.6,1.9-4.9,2.4-5c1-0.1,1.9,3.6,2.2,4.5c0.9,2.8,1.5,5.6,2.5,8.4
	c1.6,4.2,4.5,7.8,9.1,8.6c6.3,1.1,11.8-3.1,15.1-8.1c2.6-3.9,5.5-8.8,6.5-13.8c1,1.7,2.2,3.3,3.7,4.7
	C230.8,63.4,233.4,60.8,231.7,59.1z"/>
<path class="st0" d="M305.7,48.1c-0.4-3.5-1.3-6.9-3.2-9.5c-1.4-2-4.5-0.9-4.1,1.6c0.5,2.8,1.6,5.3,2,8.2c0.5,3.2,0.4,6.4-0.2,9.6
	c-0.5,2.4,1.7,4.1,3.9,3.1c5.5-2.4,11-5,16.3-7.8c1.8-1,0.7-4.2-1.4-3.5c-4,1.3-8,2.8-12,4.4c5.4-14.4,22.7-22.8,36.6-13.7
	c14.2,9.2,22.6,29.2,17.9,45.6c-4.2,15-18.9,26-34.7,21.7c-8.3-2.2-14.1-9-18.5-16c-4.3-6.8-8.1-15.3-4.5-23.2
	c1.2-2.6-2.5-4.9-3.8-2.3c-6.9,13.7,2.7,30.6,13,40c11.1,10.2,28.3,10.7,40.4,2c12.3-8.9,17.5-24.8,15.1-39.5
	c-2.6-15.8-14.5-33.2-31-36.6C323.9,29.1,311,36.2,305.7,48.1z"/>
<path class="st0" d="M359,146c-6.6-0.6-13-2.3-19-5c-2.4-1.1-4.5,0.2-4.8,2.7c-0.3,2.1,0.3,3.9,1,5.7c-34.9,5-68.9,0.6-101.4-13.6
	c-1.3-0.6-2.4,1.2-1.1,1.9c31,17.3,69.6,23.7,104.6,17c0.7,2.2,1.3,4.5,1.7,6.8c0.3,1.7,1.9,2,3.1,1.4c0.5,0,1.1-0.1,1.6-0.3
	c5.9-3,11.3-7.1,16.5-11.1C363.8,149.7,361.4,146.3,359,146z"/>
<path class="st0" d="M132.3,248.3c-5.6,0.5-11.2,1.3-16.7,2.5c-0.6,0.1-1.1,0.5-1.4,1c-0.3,0.1-0.5,0.2-0.7,0.4
	c-0.7,0.4-1.2,1.4-0.9,2.2c0.2,0.6,0.5,1.1,0.9,1.4c0.1,0.2,0.2,0.4,0.3,0.5c0.9,1.1,1.8,2.1,2.7,3.2c-7.2,6.2-14.3,12.4-21.7,18.3
	c-7.5,6-15.4,11.7-22.5,18.1c-0.9,0.8,0.3,2.2,1.3,1.7c16.7-8.8,32.3-22,46.4-34.5c1.7,1.7,3.4,3.4,5.1,5c1.6,1.4,3.8,0.8,4.5-1.2
	c1.8-5.1,3.5-10.3,5.2-15.4C135.2,250,133.9,248.1,132.3,248.3z"/>
<path class="st0" d="M35.9,183.1c-10.6-4.3-22.3-3.3-33.2-0.4c-3.3,0.9-1.9,6.1,1.4,5.2c8.2-2.3,16.8-3.5,25.2-1.6
	c6.7,1.5,16.3,5.9,18,13.3c1.9,7.8-4.9,16.7-11.1,20.5c-6.1,3.7-12.7,3.9-19.3,2.4c0.7-3.2,0.8-6.7-1.9-7.8c-2-0.8-4.2,0.8-6,1.5
	c-3,1.1-6.2,1.6-9.4,1.7c-3.1,0.1-3.8,3.8-1.5,5.5c4.4,3.1,9,5.5,14.1,7.2c1.4,0.5,2.4-0.7,2.5-1.9c0.2-0.2,0.3-0.5,0.4-0.8
	c0.2-0.6,0.5-1.4,0.8-2.4c15.7,5.7,35.9-6.3,36.1-24C52.3,192.6,43.4,186.2,35.9,183.1z M12.4,220.1c0,0.3-0.1,0.7-0.2,1
	c0,0,0,0-0.1,0c-0.1-0.2-0.3-0.5-0.6-0.6C11.9,220.4,12.2,220.3,12.4,220.1z"/>
<path class="st0" d="M374.8,321.5c-1.5-6-5-11.5-9.7-15.9c6.5-10.5,7.2-24.5-0.5-35.7c-2-2.9-6.5-0.3-4.7,2.8
	c5.2,9.2,5.3,20.4,0.4,29.1c-7.7-5.3-17.3-8-26.2-6.4c-7.7,1.4-14.5,7.5-11.5,15.9c3.2,8.9,13.6,10.8,21.8,9
	c7-1.5,12.9-5.2,17.2-10.1c3.7,3.6,6.4,7.9,7.6,12.8c2.9,11.8-2.8,25.2-13.5,31c-8.3,4.5-19,4.1-26.2-2.3
	c-6.5-5.8-6.9-13.9-7.1-21.9c1.9,1.7,4.1,3.1,6.5,3.8c1.8,0.5,2.9-2.1,1.3-3.1c-3-1.7-5.8-3.4-7.9-6.3c-0.8-1.1-2.6-1.4-3.3,0
	c-2.1,4.2-4.2,8.3-6.9,12.2c-0.9,1.3,1.2,2.9,2.2,1.7c1.6-1.8,3.1-3.7,4.4-5.7c-0.6,7.7,0.8,15.4,6.3,21.5c6.4,7,16.3,9.5,25.4,7.6
	C368.4,357.9,379,338.6,374.8,321.5z M352,310.7c-5.8,4-15.7,7.2-22,2.4c-3.6-2.8-4.4-8-0.6-10.9c2.7-2,6.5-2.3,9.8-2.1
	c6.1,0.4,12.4,2.6,17.7,6.2C355.6,308,353.9,309.5,352,310.7z"/>
<path class="st0" d="M24.1-70c-2.5-3.2-4.4-6.7-5.9-10.5c-0.4-1.1-1.9-1.8-2.8-0.7c-0.1,0.1-0.2,0.2-0.3,0.3c-0.4,0.1-0.9,0.4-1.1,1
	c0,0.1-0.1,0.2-0.1,0.3c-2.7,2.9-5.7,5.6-8.7,8.2c-0.9,0.8,0.2,2.1,1.2,1.6c1.9-1,3.8-2.3,5.5-3.6C6.8-56.6,3.6-38.8,0.3-21.7
	c-1-1.7-1.9-3.4-2.9-5.1c-0.7-1.2-2.8-0.4-2.3,1c1.1,3,2.4,5.9,3.4,8.8c0.4,1.1,1.9,2.1,3,1.2c3.6-2.6,6.7-4.9,10.9-6.5
	c2.7-1,1.6-5.2-1.2-4.3c-1.9,0.6-4,1.5-5.9,2.5c1.6-8.4,3.2-16.8,5-25.2c1.9-9.1,4.3-18.3,5.9-27.5c1.5,3.2,3.3,6.2,5.5,9
	C23.1-65.9,25.4-68.3,24.1-70z"/>
<path class="st0" d="M363.8,217.8c-3.3-9.4-7.8-18.1-12.6-26.9c-0.6-1-2.2-1.3-3-0.4c-6.5,7.2-12.8,14.4-19,21.9
	c-0.2,0.2-0.3,0.4-0.3,0.6c-0.8,0.5-0.8,2,0.3,2.2c4,0.9,8.1,1.8,12.1,2.5c-0.4,3.4-0.6,6.8-1.5,10.1c-1.4,4.8-3.7,9.4-6.6,13.4
	c-6,8.2-14.5,13.2-21.3,20.4c-1.6,1.8,0.4,4.5,2.6,3.3c9.3-5,18.3-13.7,24.2-22.5c4.4-6.5,8.3-16,6.4-24.1c1.7,0.3,3.5,0.6,5.2,0.9
	c0.4,5.3,1.2,10.5,0.3,15.8c-0.8,4.5-2.6,8.9-4.7,12.9c-4,7.7-8.5,14.8-14.2,21.3c-1.6,1.7,0.4,4.6,2.6,3.3
	c7.9-4.7,12.8-15.7,16.5-23.7c4.4-9.4,5.3-19,2.9-29c2.1,0.4,4.2,0.7,6.3,1.1c1,0.2,1.8-0.4,2.2-1.1
	C363.3,219.8,364.3,219,363.8,217.8z M332.7,213.2c5.7-5.9,11.2-12,16.6-18.2c4.1,7,7.4,14.5,10.4,22
	C350.8,215.7,341.8,214.2,332.7,213.2z"/>
<path class="st0" d="M-14.3-80.2c-13.8-0.7-27.3-2.9-40.6-6.6c-1.4-0.4-3.1,1-2.6,2.6c1.8,4.6,3.6,9.1,5.5,13.6
	c-17.8,1.1-28.7,18.2-30.6,34.9C-84.8-17.1-75.7,1-58.6,9c2.3,1.1,4.5-1.1,3.4-3.4c-10.4-21.3-8.8-46.7,9.6-62.5
	c1.3,3.7,2.5,7.5,3.7,11.2c0.5,1.6,2.9,2.2,3.8,0.5c6.2-12.1,14.7-22.7,25.2-31.4C-11.4-77.9-12.7-80.1-14.3-80.2z M-39.4-51.5
	c-1.1-3.2-2.1-6.4-3.1-9.6c-0.4-1.3-1.9-2-3.1-1.3c-22.2,13-24.9,41.1-16.9,63.4c-10.8-7.4-16.8-19.7-16.1-33.3
	c0.8-16.2,10.9-34.3,28.9-34.4c1.7,0,2.2-1.7,1.7-2.9c0-0.2,0-0.5-0.1-0.8c-1.3-3.8-2.6-7.6-4-11.4c10.8,2.7,21.7,4.5,32.7,5.3
	C-27.3-69.1-34-60.8-39.4-51.5z"/>
<path class="st0" d="M75.7,147.8c-5.3-0.3-10-1.9-15.2-2.7c-1.8-0.3-2.9,2-1.3,3.1c2.8,1.9,6.2,3,9.7,3.9
	c-17.4,7.5-38.9,5.2-53.2-8.3c-8-7.5-8.2-18.1-6.7-28.3c1.1-7.6,2.5-15.1,5.2-22.2c0.5,1.6,1.3,3,2.2,4.3c1.8,2.4,5.8,0.2,4.1-2.4
	c-2.3-3.6-2.8-6.8-2.5-11c0.1-1.8-2-2.7-3.4-1.9c-3.3,1.7-6.8,3.2-10,5c-1.4,0.8-0.5,3.1,1.1,2.6c2.1-0.6,4.1-1.3,6.1-2
	c-6.1,7.8-7.5,19.2-8.8,28.6c-1.5,11.1-0.6,22.7,7.9,30.9c13.9,13.5,39.6,17.5,57.4,9.1c-0.3,1.1-0.7,2.2-1.3,3c-2,1-2.4,4,0.3,4.9
	c2.5,0.8,4.4-0.9,5.3-3.2c1.3-3.4,2.3-6.1,5-8.7C79.4,150.7,78,147.9,75.7,147.8z"/>
<path class="st0" d="M258.6,41.3c-4.9,0.9-7.2,9.3-9.1,13c-1.7,3.3,3.5,6.6,5.6,3.5c0.6-0.9,1.2-1.7,1.8-2.6
	c0.1,24.8,10.6,52.1,31,66.4c1.1,0.8,2.2-0.7,1.3-1.6c-9.6-10.1-17.8-20.2-22.8-33.4c-4.1-10.8-5.7-22.3-4.9-33.8
	c0.8,1.1,1.6,2.2,2.5,3.3c2.9,3.4,8-0.2,5.7-4.1C267.6,48.6,263.6,40.4,258.6,41.3z"/>
<path class="st0" d="M-16.1,293c-1-1.1-2.9,0.3-2.1,1.6c9.8,15.4,9.1,35.3-4.8,48c-12.7,11.6-35,14.8-47.8,1.9
	c-11.5-11.6-11.7-29.6-2.9-42.9c4.6-6.9,11.5-12.3,19.1-15.6c5.1-2.3,11.8-4.5,17.9-4.3c-2.3,1.1-4.5,2.6-6.2,4.2
	c-2.8,2.6,0.8,6.8,3.9,5.1c2.7-1.5,5.4-2.9,8.1-4.2c1.4-0.7,3.6-1.3,5-2.4c0.1,0,0.2-0.1,0.3-0.1c1.5-0.5,2-2.4,1.1-3.5
	c-0.2-0.8-0.5-1.6-0.7-2.3c-0.9-2.6-1.7-5.3-2.7-7.9c-1.5-3.6-7.3-2.1-5.9,1.6c0.5,1.4,1.2,2.8,1.9,4.2
	c-12.6-3.6-28.9,3.4-38.3,10.6c-12.7,9.8-20.2,26.3-17.4,42.3c2.5,14.5,14.4,27,29.1,29.2c15.6,2.3,34.8-4.3,44.4-17.1
	C-3.5,327.2-4.5,306.6-16.1,293z"/>
<path class="st0" d="M243.9,119.3c-9.5-1.6-19.2-2.1-28.7-4.1c-8.9-1.8-17.6-4.5-26.3-7c-0.7-1.5-1.6-3-2.5-4.5
	c2.2,0.2,4.3,0.3,6.5-0.2c6.7,2.9,14.3,4.6,21.3,6.2c8.4,1.9,17.1,3.6,25.7,4.1c2.5,0.2,2.4-3.6,0-3.9c-8.7-1-17.3-1.8-25.8-3.5
	c-5.8-1.2-11.6-2.9-17.4-4.4c2.8-1.4,5.3-3.4,8.2-4.7c3.3-1.5,0.9-6.5-2.4-5.7c-3.4,0.8-5.7,3.4-8.8,4.8c-4.4,2.1-9.4,0.7-13.9-0.4
	c-3-0.8-5,2.9-3,5.1c4.9,5.4,7.1,11.8,11.2,17.5c0.9,1.3,2.8,0.8,2.9-0.8c0.2-2.3-0.2-4.7-1-7c7.8,3.3,16.1,5.6,24.3,7.6
	c9.3,2.2,19.5,4.6,29.1,4.6C245.5,123.2,246.1,119.7,243.9,119.3z"/>
<path class="st0" d="M37.1,256.6c-6.2-4.1-14.2-6.5-21.3-8.5c-7.6-2.1-15.5-3.7-23.5-3.7c-0.8,0-1,1.2-0.2,1.4
	c10.4,2.2,20.6,4.3,30.4,8.3c5,2,11.1,4.3,14.9,8.3c3.9,4,6.2,10,7.2,15.4c2.2,11.3-3.2,23.1-15.4,25c-4.9,0.8-11-0.5-13.9-4.9
	c-4.1-6.2,1.1-12.8,4.2-18.1c0.2,2.5,0.9,5.1,2.2,6.9c1.9,2.7,6.7,1.2,5.6-2.4c-0.5-1.6-1.2-3-1.5-4.7c-0.3-1.7-0.1-3.3-0.1-5
	c0-2.1-2.4-3.6-4.2-2.4c-1.8,1.2-3.9,2-6,2.6c-1.8,0.5-3.8,0.6-5.4,1.8c-0.8,0.6-1,1.9,0,2.4c1.4,0.7,3.1,0.9,4.8,0.7
	c-6.9,9-8.2,22.2,4.5,26.8c10.9,3.9,23.5-2.9,27.8-13.4C51.8,281.9,47.6,263.6,37.1,256.6z"/>
<path class="st3" d="M22.4,8.7C19.2,7,16.1,5.2,13,3.5C10.9,2.4,8,3.4,7.5,5.8c-1.1,4.7-2.7,9.3-4.6,13.8c-1.5,3.7,4.4,5.8,6.3,2.6
	c0,0,0,0,0,0c1.3-2.4,2.4-4.9,3.4-7.5c5.9,13.6,3.8,28.5-3.3,41.8c-0.5,1,0.8,2.2,1.7,1.3c10.2-11.8,11.4-29.2,6-43.5
	c0.6,0.3,1.1,0.6,1.7,0.9C22.8,17.7,26.7,11,22.4,8.7z"/>
<path class="st0" d="M277.4-96.4c-6,1.5-12.1,3.1-18.1,4.6c-3.7,0.9-3.7,7.2,0.5,7.1c2.6-0.1,5-0.4,7.4-0.9
	c-20.9,30.1-32.4,69-22.9,105.1c-1.6-1.1-3.2-2.2-4.8-3.1c-2.7-1.4-5.1,1.5-3.4,3.9c2.6,3.7,6.6,6.6,10.1,9.5
	c2.3,1.9,5.5-0.3,5.8-2.9c0.4-4.4,2.2-8.1,5.3-11.2c3.4-3.4-1.5-9-5.1-5.6c-1.8,1.7-3.3,3.7-4.5,5.8c-2.3-17.5-2.4-34.8,1.8-52.2
	c4.2-17.9,12.2-35.8,24.2-50.1c-0.1,1.4-0.1,2.8,0,4.2c0.4,6,9.1,5.5,8.3-0.6c-0.4-3.3-0.4-6.4,0.1-9.7
	C282.3-94.8,279.7-96.9,277.4-96.4z"/>
<path class="st0" d="M225.9-79.8c-9.2-2.9-17.9-7.1-25.9-12.5c-1.6-1.1-4,0.3-3.9,2.2c0.2,3.6,0.3,7.3,0.4,10.9
	c-18.7-1.7-36.8-6.3-54.1-13.7c-1.5-0.6-3.9,0.9-2.6,2.6c3.6,4.8,7.6,9.1,12.2,12.8c-4.3,0.8-8.6,1.8-12.8,3.1
	c-1.1,0.4-1.5,1.4-1.4,2.3c-0.1,0.5,0.1,1,0.7,1.3c0.3,0.3,0.8,0.5,1.3,0.4c17.5,5.6,35.5,8.3,53.8,8.4c0,5.2,0.4,10.3,1.3,15.4
	c0.3,2,3,1.9,3.9,0.5c7.8-11,16.8-20.6,27.7-28.5C228.5-76,228.4-79,225.9-79.8z M198.1-52.7c-0.6-3.7-0.8-7.4-0.8-11.1
	c0-1-0.9-1.8-1.8-1.8c-17.3,0.2-34.5-1.9-51.2-6c4.1-1.2,8.2-2.3,12.4-3.1c1.7-0.3,1.5-2.5,0.4-3.3c-3.4-2.5-6.6-5.2-9.4-8.3
	c16.3,6.9,33.7,11.2,51.4,12.5c1.3,0.1,2.6-1.3,2.6-2.6c-0.1-2.9-0.2-5.8-0.3-8.6c5.6,3.7,11.6,6.7,17.9,9.1
	C211.4-69.1,204.1-61.3,198.1-52.7z"/>
<path class="st0" d="M252,163c-6,2-11.5,1.9-17.6,1c-2.9-0.4-4.2,3.5-1.2,4.5c2.8,0.9,5.7,1.3,8.6,1.5c-11.6,10.8-28.9,18.1-44.7,15
	c-3-0.6-6.2-1.8-9-3.6c0.1,0,0.2-0.1,0.3-0.1c6.9-2.8,14.8-8.8,14.1-17.1c-0.6-7.1-8.1-12.3-14.9-11.6c-7.6,0.7-13.3,8.2-13.8,15.5
	c-0.3,3.7,0.7,7.4,2.6,10.6c-6.3-0.1-12.7-2.2-17.3-6.4c-2.6-2.3-4.7-5.5-5.9-8.9c9.5-3.1,17.5-11.7,19.9-22.5
	c0.2-1.1-0.2-2.3-1.2-2.9c-15.3-8.5-30.1,6.9-26.9,22c-4.8-0.2-9.5-2.1-13.4-6c-2.1-2.2-3.7-4.7-4.6-7.3c4.9-1.2,9.7-3,13.5-5.1
	c6.2-3.3,15.3-11.2,12.8-19.4c-2.7-8.6-15-6-20.7-2.4c-8.5,5.3-12.3,14.4-11.3,23.1c-6.9,1.5-14,0.6-16.5-7.6
	c-5.2-17.1,14-26.5,26.5-32.1c1.1-0.5,0.3-2.4-0.9-2c-14.5,5.2-32.8,14.3-29.8,32.8c1.9,12.1,11.6,14.7,21.7,13.5
	c1.5,4.5,4.3,8.7,8.6,11.9c5,3.8,10.3,5.3,15.5,5.1c5.7,13,19.8,20.4,33.5,18.9c2,2.1,4.4,3.9,6.9,5.1c20.1,10,46.6-2,60.4-17.2
	c0.4-0.4,0.6-0.9,0.6-1.4c0.1,0,0.2,0,0.4,0c-1.2,4.5-1.2,9.3-0.1,13.8c1.1,4.4,7.6,2.5,6.7-1.9c-1-5.3-0.5-9.8,1.1-14.9
	C256.6,164.6,254.3,162.3,252,163z M129,131.9c2.1-3.1,5.1-5.7,8.6-7c3.3-1.3,10.2-2.5,7.5,3.1c-3.2,6.5-10.5,10-16.9,12.6
	c-0.7,0.3-1.4,0.6-2.1,0.8C126,138.2,127,134.9,129,131.9z M153.1,150.4c2.3-5.4,8.8-9.3,14.6-8.4c-1.6,8.6-8,14.9-15.6,17.1
	C151.7,156.2,151.9,153.2,153.1,150.4z M183.7,177.7c-2-2.3-3.3-5.1-3.4-8.4c-0.4-8.4,10.9-17.2,16.5-7.5
	C201.4,169.6,190.8,175.7,183.7,177.7z"/>
<path class="st0" d="M307.3,199.1c-25.8-6.8-54-0.5-70.2,21.8c-4.8,6.7-8.7,15.2-9.2,23.8c-8.2,6.6-14.9,15.5-19,25
	c-5.9,13.5-8.3,29.8-2.9,43.9c3.3,8.7,9.2,16.5,17,21.4c-4.1,0.5-8.2,1.4-12.1,3c-3,1.2-1.9,5.6,1.4,4.9c9.2-1.8,17.8-2.7,27.2-1.3
	c4.1,0.6,5.5-4.6,1.7-6.2c-5.3-2.2-6.7-7.3-6.4-12.5c0.2-3.5-5.2-4.1-6.1-0.8c-1.2,4.5-0.2,8.9,2.2,12.5c-0.1,0-0.2,0-0.3,0
	c-31.6-15.1-25.4-60.4-2.3-82.7c0.3,1.7,0.8,3.4,1.5,5.1c4.5,10.6,15.7,16.3,26.8,17.2c11.2,0.9,24.2-3.6,27.5-15.4
	c3-10.9-5.8-19.8-15.5-22.9c-11.5-3.7-22.6-1.8-32.4,3.4c1.3-4.8,3.6-9.4,6.3-13.2c13.9-20.3,40.4-26.8,63.7-23.1
	C308.7,203.2,309.8,199.8,307.3,199.1z M248.6,240.2c9.4-2.3,22.5-1.5,29.3,6.5c4.1,4.8,3.1,11.3-0.9,15.7
	c-3.9,4.3-9.9,5.8-15.5,5.8c-9,0-19.6-4-24-12.5c-1.6-3-2.2-6.3-2.1-9.6C239.4,243.4,243.8,241.4,248.6,240.2z"/>
<path class="st0" d="M184.1,269.3c3.9,1.8,7.2-3.9,3.4-5.8c-5.8-2.8-11.8-4.3-18.2-4.5c-1.3,0-3,1.1-3.2,2.4c-0.9,6-1.9,12-2.7,18
	c-0.4,3.1,4,5.9,5.6,2.4c1.7-3.7,3.1-7.5,4.1-11.4c16.1,20.7,10.9,49.1,0.8,71.8c-0.6,1.3,1.2,2.4,1.9,1.1
	c12.3-23.4,19-54.4,1.5-76.5C179.6,267.5,181.9,268.3,184.1,269.3z"/>
<path class="st0" d="M199.3,236.7c-4-4.4-8.1-9.1-12.7-13c-4.1-3.5-9.2,1.7-5.8,5.8c1,1.3,2.1,2.5,3.3,3.7
	c-16.4-3.3-32.8-9-48.6-14.1c-18.1-5.9-35.9-12.5-53.6-19.4c-2-0.8-3.5,2.6-1.5,3.5c17.2,8,34.8,15,52.7,21.2c9,3.1,18.1,6,27.2,8.8
	c3.5,1,7,2,10.5,2.9c-4,1.2-3,7.6,1.3,7.6c8.1,0,16.3-0.2,24.4,0.1C200.1,243.8,201.5,239.2,199.3,236.7z"/>
<path class="st0" d="M209.2,209.7c-8.2-4.3-18.2-6.1-27.1-8.8c-9.5-2.9-19-5.8-28.5-8.6c-15.1-4.5-30.2-9.5-45.6-13.1
	c2.3-1,4.5-2.1,6.5-3.3c3.5-2.2,1.3-7.8-2.8-6.7c-6.7,1.7-13.2,5.4-19.5,8.1c-2.8,1.2-2.3,5.4,0,6.7c6,3.6,11.9,7.7,18.1,11
	c2.3,1.2,4.8-1.8,2.8-3.7c-3.1-2.9-6.5-5.6-9.8-8.3c15.6,5.9,31.8,10.4,47.6,15.3c9.5,2.9,19,5.8,28.5,8.7c9.2,2.8,18.9,7,28.4,7.9
	C210.6,215.2,211.6,211,209.2,209.7z"/>
<path class="st0" d="M90.1,239.2c-2.7-2.8-4.9-5.7-6.8-9.2c-1-1.8-3.9-2.8-5.6-1.5c-0.4,0.3-0.9,0.7-1.3,1c-0.7,0.2-1.2,0.7-1.6,1.3
	c-4.6,3.9-8.5,8.4-11.2,13.9c-1.6,3.2,1.9,8,5.4,5.4c1.9-1.4,3.7-2.9,5.3-4.6c0.1,3,0.4,6,1,8.8c0.7,3.2,4.8,2,5.2-0.7
	c0.5-4,0.5-8.2,0.5-12.3c1,1.3,2.1,2.5,3.3,3.6C88.2,248.7,93.8,243.1,90.1,239.2z"/>
</svg>
