<?xml version="1.0" encoding="utf-8"?>
<!-- Generator: Adobe Illustrator 23.0.0, SVG Export Plug-In . SVG Version: 6.00 Build 0)  -->
<svg version="1.1" xmlns="http://www.w3.org/2000/svg" xmlns:xlink="http://www.w3.org/1999/xlink" x="0px" y="0px"
	 viewBox="0 0 800 800" style="enable-background:new 0 0 800 800;" xml:space="preserve">
<style type="text/css">
	.st0{fill:url(#SVGID_1_);}
	.st1{fill:#0E0E0E;}
	.st2{fill:none;stroke:url(#SVGID_2_);stroke-width:0.7087;stroke-miterlimit:10;}
	.st3{fill:url(#SVGID_3_);stroke:url(#SVGID_4_);stroke-miterlimit:10;}
	.st4{opacity:0.5;}
	.st5{fill:none;stroke:url(#SVGID_5_);stroke-width:2.8347;stroke-miterlimit:10;}
	.st6{fill:none;stroke:url(#SVGID_6_);stroke-width:2.8347;stroke-miterlimit:10;}
	.st7{fill:url(#SVGID_7_);}
	.st8{fill:url(#SVGID_8_);stroke:url(#SVGID_9_);stroke-miterlimit:10;}
	.st9{fill:url(#SVGID_10_);}
	.st10{fill:url(#SVGID_11_);}
	.st11{fill:url(#SVGID_12_);}
	.st12{fill:url(#SVGID_13_);}
	.st13{fill:url(#SVGID_14_);}
	.st14{fill:url(#SVGID_15_);}
	.st15{fill:url(#SVGID_16_);}
	.st16{fill:url(#SVGID_17_);stroke:url(#SVGID_18_);stroke-width:0.2835;stroke-miterlimit:10;}
	.st17{fill:#595959;}
	.st18{fill:#2D2D2D;}
	.st19{fill:#B74615;}
	.st20{fill:#68260F;}
	.st21{fill:#E05915;}
	.st22{fill:#FFFFFF;}
	.st23{font-family:'ImprintMT-Shadow';}
	.st24{font-size:63.3759px;}
</style>
<g id="Background">
	<linearGradient id="SVGID_1_" gradientUnits="userSpaceOnUse" x1="399.7698" y1="5.484" x2="399.7698" y2="799.156">
		<stop  offset="0" style="stop-color:#3D3D3D"/>
		<stop  offset="1" style="stop-color:#282828"/>
	</linearGradient>
	<rect x="-0.5" class="st0" width="800.5" height="800"/>
</g>
<g id="Objects">
	<g>
		<g>
			<g>
				
					<image style="overflow:visible;opacity:0.5;" width="142" height="142" xlink:href="6B6852BF.png"  transform="matrix(1 0 0 1 516 541.25)">
				</image>
				<g>
					<path class="st1" d="M579.9,669.1c-35.3,0-63.9-28.6-63.9-63.9c0-35.3,28.6-63.9,63.9-63.9c35.3,0,63.9,28.6,63.9,63.9
						C643.8,640.5,615.2,669.1,579.9,669.1z"/>
					
						<linearGradient id="SVGID_2_" gradientUnits="userSpaceOnUse" x1="548.3469" y1="411.936" x2="676.9072" y2="411.936" gradientTransform="matrix(0 1 -1 0 991.8066 -7.4317)">
						<stop  offset="7.526880e-02" style="stop-color:#242424"/>
						<stop  offset="0.1166" style="stop-color:#2E2E2E"/>
						<stop  offset="0.1876" style="stop-color:#4A494A"/>
						<stop  offset="0.2527" style="stop-color:#696869"/>
						<stop  offset="0.4127" style="stop-color:#555455"/>
						<stop  offset="0.7258" style="stop-color:#242424"/>
						<stop  offset="1" style="stop-color:#636162"/>
					</linearGradient>
					<path class="st2" d="M579.9,669.1c-35.3,0-63.9-28.6-63.9-63.9c0-35.3,28.6-63.9,63.9-63.9c35.3,0,63.9,28.6,63.9,63.9
						C643.8,640.5,615.2,669.1,579.9,669.1z"/>
				</g>
			</g>
			
				<linearGradient id="SVGID_3_" gradientUnits="userSpaceOnUse" x1="569.2579" y1="411.9375" x2="655.9981" y2="411.9375" gradientTransform="matrix(0 1 -1 0 991.8066 -7.4317)">
				<stop  offset="0" style="stop-color:#E9E8E8"/>
				<stop  offset="8.598967e-03" style="stop-color:#E1E0E0"/>
				<stop  offset="5.717247e-02" style="stop-color:#BBBABA"/>
				<stop  offset="0.1076" style="stop-color:#9B999A"/>
				<stop  offset="0.1595" style="stop-color:#828181"/>
				<stop  offset="0.2136" style="stop-color:#716F70"/>
				<stop  offset="0.2713" style="stop-color:#666465"/>
				<stop  offset="0.3387" style="stop-color:#636162"/>
				<stop  offset="0.7796" style="stop-color:#C2C0C1"/>
				<stop  offset="0.8231" style="stop-color:#A9A7A8"/>
				<stop  offset="0.8999" style="stop-color:#848182"/>
				<stop  offset="0.9616" style="stop-color:#6D6A6B"/>
				<stop  offset="1" style="stop-color:#646162"/>
			</linearGradient>
			
				<linearGradient id="SVGID_4_" gradientUnits="userSpaceOnUse" x1="568.7579" y1="411.9375" x2="656.4981" y2="411.9375" gradientTransform="matrix(0 1 -1 0 991.8066 -7.4317)">
				<stop  offset="0" style="stop-color:#646162"/>
				<stop  offset="3.841048e-02" style="stop-color:#6D6A6B"/>
				<stop  offset="0.1001" style="stop-color:#848182"/>
				<stop  offset="0.1769" style="stop-color:#A9A7A8"/>
				<stop  offset="0.2204" style="stop-color:#C2C0C1"/>
				<stop  offset="0.6613" style="stop-color:#636162"/>
				<stop  offset="0.7287" style="stop-color:#666465"/>
				<stop  offset="0.7864" style="stop-color:#716F70"/>
				<stop  offset="0.8405" style="stop-color:#828181"/>
				<stop  offset="0.8924" style="stop-color:#9B999A"/>
				<stop  offset="0.9428" style="stop-color:#BBBABA"/>
				<stop  offset="0.9914" style="stop-color:#E1E0E0"/>
				<stop  offset="1" style="stop-color:#E9E8E8"/>
			</linearGradient>
			<path class="st3" d="M579.9,648.6c-24,0-43.4-19.4-43.4-43.4c0-24,19.4-43.4,43.4-43.4c24,0,43.4,19.4,43.4,43.4
				C623.2,629.1,603.8,648.6,579.9,648.6z"/>
			<g>
				
					<image style="overflow:visible;opacity:0.5;" width="482" height="482" xlink:href="6B6852BA.png"  transform="matrix(1 0 0 1 166 174)">
				</image>
				<g>
					<g>
						<image style="overflow:visible;" width="449" height="448" xlink:href="6B6852B9.png"  transform="matrix(1 0 0 1 175 184)">
						</image>
						<g class="st4">
							
								<image style="overflow:visible;" width="487" height="488" xlink:href="6B6852C5.png"  transform="matrix(1 0 0 1 156 164.2495)">
							</image>
						</g>
						
							<linearGradient id="SVGID_5_" gradientUnits="userSpaceOnUse" x1="190.2722" y1="592.2661" x2="640.5111" y2="592.2661" gradientTransform="matrix(0 1 -1 0 991.8066 -7.4317)">
							<stop  offset="0.1022" style="stop-color:#E9E8E8"/>
							<stop  offset="0.3387" style="stop-color:#636162"/>
							<stop  offset="0.7097" style="stop-color:#C2C0C1"/>
							<stop  offset="0.7553" style="stop-color:#A5A3A4"/>
							<stop  offset="0.8322" style="stop-color:#7A7778"/>
							<stop  offset="0.9013" style="stop-color:#5B5859"/>
							<stop  offset="0.9596" style="stop-color:#484546"/>
							<stop  offset="1" style="stop-color:#413E3F"/>
						</linearGradient>
						
							<ellipse transform="matrix(0.9977 -6.790458e-02 6.790458e-02 0.9977 -26.7802 28.0723)" class="st5" cx="399.5" cy="408" rx="223.7" ry="223.7"/>
						
							<linearGradient id="SVGID_6_" gradientUnits="userSpaceOnUse" x1="206.6165" y1="592.2676" x2="624.1674" y2="592.2676" gradientTransform="matrix(0 1 -1 0 991.8066 -7.4317)">
							<stop  offset="0.1022" style="stop-color:#E9E8E8"/>
							<stop  offset="0.3387" style="stop-color:#636162"/>
							<stop  offset="0.7097" style="stop-color:#C2C0C1"/>
							<stop  offset="0.7553" style="stop-color:#A5A3A4"/>
							<stop  offset="0.8322" style="stop-color:#7A7778"/>
							<stop  offset="0.9013" style="stop-color:#5B5859"/>
							<stop  offset="0.9596" style="stop-color:#484546"/>
							<stop  offset="1" style="stop-color:#413E3F"/>
						</linearGradient>
						<path class="st6" d="M399.5,615.3c-114.5,0-207.4-92.8-207.4-207.4c0-114.5,92.8-207.4,207.4-207.4
							c114.5,0,207.4,92.8,207.4,207.4C606.9,522.5,514.1,615.3,399.5,615.3z"/>
						<g>
							
								<linearGradient id="SVGID_7_" gradientUnits="userSpaceOnUse" x1="359.7418" y1="592.2661" x2="471.0411" y2="592.2661" gradientTransform="matrix(0 1 -1 0 991.8066 -7.4317)">
								<stop  offset="0.1022" style="stop-color:#E9E8E8"/>
								<stop  offset="0.3387" style="stop-color:#636162"/>
								<stop  offset="0.7097" style="stop-color:#C2C0C1"/>
								<stop  offset="0.7553" style="stop-color:#A5A3A4"/>
								<stop  offset="0.8322" style="stop-color:#7A7778"/>
								<stop  offset="0.9013" style="stop-color:#5B5859"/>
								<stop  offset="0.9596" style="stop-color:#484546"/>
								<stop  offset="1" style="stop-color:#413E3F"/>
							</linearGradient>
							<path class="st7" d="M399.5,463.6c-30.7,0-55.6-24.9-55.6-55.6c0-30.7,24.9-55.7,55.6-55.7c30.7,0,55.6,24.9,55.6,55.7
								C455.2,438.7,430.3,463.6,399.5,463.6z"/>
							<image style="overflow:visible;" width="101" height="102" xlink:href="6B6852C7.png"  transform="matrix(1 0 0 1 349 357)">
							</image>
						</g>
					</g>
				</g>
			</g>
			<g>
				
					<image style="overflow:visible;opacity:0.6;" width="480" height="255" xlink:href="6B6852CA.png"  transform="matrix(1 0 0 1 210 420)">
				</image>
				<g>
					<g>
						
							<linearGradient id="SVGID_8_" gradientUnits="userSpaceOnUse" x1="1078.7545" y1="2168.0195" x2="1084.5724" y2="2226.4019" gradientTransform="matrix(-0.7512 0.6601 -0.6601 -0.7512 2493.0547 1376.1049)">
							<stop  offset="0" style="stop-color:#000000"/>
							<stop  offset="0.2519" style="stop-color:#060606"/>
							<stop  offset="0.5951" style="stop-color:#181617"/>
							<stop  offset="0.9894" style="stop-color:#343132"/>
							<stop  offset="1" style="stop-color:#353233"/>
						</linearGradient>
						
							<linearGradient id="SVGID_9_" gradientUnits="userSpaceOnUse" x1="426.4936" y1="758.4111" x2="477.6451" y2="758.4111" gradientTransform="matrix(0 1 -1 0 991.8066 -7.4317)">
							<stop  offset="0" style="stop-color:#5A5A5A"/>
							<stop  offset="0.2943" style="stop-color:#343434"/>
							<stop  offset="0.5762" style="stop-color:#181818"/>
							<stop  offset="0.8207" style="stop-color:#060606"/>
							<stop  offset="1" style="stop-color:#000000"/>
						</linearGradient>
						<path class="st8" d="M227.5,450.4l1.4-1.2l17.4,19.8c0.8,1,2.3,1,3.2,0.2l6.5-5.7c1-0.8,1-2.3,0.2-3.2l-17.4-19.8l1.4-1.2
							c1-0.8,1-2.3,0.2-3.2l-13.7-15.6c-0.8-1-2.3-1-3.2-0.2l-12.8,11.3c-1,0.8-1,2.3-0.2,3.2l13.7,15.6
							C225.1,451.1,226.5,451.2,227.5,450.4z"/>
						
							<linearGradient id="SVGID_10_" gradientUnits="userSpaceOnUse" x1="645.5632" y1="364.0406" x2="478.5903" y2="760.167" gradientTransform="matrix(0 1 -1 0 991.8066 -7.4317)">
							<stop  offset="0.1022" style="stop-color:#E9E8E8"/>
							<stop  offset="0.3387" style="stop-color:#636162"/>
							<stop  offset="0.7097" style="stop-color:#C2C0C1"/>
							<stop  offset="0.7553" style="stop-color:#A5A3A4"/>
							<stop  offset="0.8322" style="stop-color:#7A7778"/>
							<stop  offset="0.9013" style="stop-color:#5B5859"/>
							<stop  offset="0.9596" style="stop-color:#484546"/>
							<stop  offset="1" style="stop-color:#413E3F"/>
						</linearGradient>
						<path class="st9" d="M248.5,473.6l10.6-10.1c0.4,0.4,35.6,37.4,59.6,58.1c18.3,15.7,43.1,16.2,57.9,16.5
							c3.4,0.1,6.3,0.1,8.6,0.3c10.8,1.1,100.6,11.2,125.5,18.6c20,6,54,24.4,87.3,39.8c11,5.1,35.5,16.9,45.7,21.4l-6,13.4
							c-10.3-4.6-35.3-16.7-45.9-21.5c-32.7-15.1-63.9-32.7-84.9-38.9c-22.7-6.7-108.9-16.8-123.2-18.2c-1.7-0.2-4.3-0.2-7.4-0.3
							c-15.7-0.3-44.9-0.9-67.2-20C284.6,511.5,250,475.1,248.5,473.6z"/>
						<image style="overflow:visible;" width="130" height="77" xlink:href="6B6852CB.png"  transform="matrix(1 0 0 1 520 560)">
						</image>
						<g>
							
								<linearGradient id="SVGID_11_" gradientUnits="userSpaceOnUse" x1="683.2009" y1="606.7379" x2="737.1685" y2="606.7379" gradientTransform="matrix(-0.4231 0.9061 -0.9061 -0.4231 1514.5201 250.1473)">
								<stop  offset="0.1022" style="stop-color:#E9E8E8"/>
								<stop  offset="0.3387" style="stop-color:#636162"/>
								<stop  offset="0.7097" style="stop-color:#C2C0C1"/>
								<stop  offset="0.7553" style="stop-color:#A5A3A4"/>
								<stop  offset="0.8322" style="stop-color:#7A7778"/>
								<stop  offset="0.9013" style="stop-color:#5B5859"/>
								<stop  offset="0.9596" style="stop-color:#484546"/>
								<stop  offset="1" style="stop-color:#413E3F"/>
							</linearGradient>
							<path class="st10" d="M668.6,639c6.3-13.5,9.7-25.3,7.5-26.3l-5-1.5c-0.9,5.3-4.1,14.4-8.8,24.5c-4.9,10.5-10.1,19.2-13.6,23
								l4.5,2.9C655.5,662.6,662.3,652.5,668.6,639z"/>
							
								<linearGradient id="SVGID_12_" gradientUnits="userSpaceOnUse" x1="679.9031" y1="642.2664" x2="739.6826" y2="642.2664" gradientTransform="matrix(-0.4231 0.9061 -0.9061 -0.4231 1514.5201 250.1473)">
								<stop  offset="0.1022" style="stop-color:#E9E8E8"/>
								<stop  offset="0.3387" style="stop-color:#636162"/>
								<stop  offset="0.7097" style="stop-color:#C2C0C1"/>
								<stop  offset="0.7553" style="stop-color:#A5A3A4"/>
								<stop  offset="0.8322" style="stop-color:#7A7778"/>
								<stop  offset="0.9013" style="stop-color:#5B5859"/>
								<stop  offset="0.9596" style="stop-color:#484546"/>
								<stop  offset="1" style="stop-color:#413E3F"/>
							</linearGradient>
							<path class="st11" d="M644.4,602.9l-4-1.2c0,0,0,0,0,0c-1.1-0.5-6.1,8-11.2,18.9c-5.1,10.9-8.4,20.2-7.3,20.7c0,0,0,0,0,0
								l3.6,2.3c0.7-3.6,3.9-11.8,8.2-21.1C637.9,613.5,642,606,644.4,602.9z"/>
							
								<linearGradient id="SVGID_13_" gradientUnits="userSpaceOnUse" x1="676.3414" y1="624.77" x2="742.8657" y2="624.77" gradientTransform="matrix(-0.4231 0.9061 -0.9061 -0.4231 1514.5201 250.1473)">
								<stop  offset="0.1022" style="stop-color:#E9E8E8"/>
								<stop  offset="0.3387" style="stop-color:#636162"/>
								<stop  offset="0.7097" style="stop-color:#C2C0C1"/>
								<stop  offset="0.7553" style="stop-color:#A5A3A4"/>
								<stop  offset="0.8322" style="stop-color:#7A7778"/>
								<stop  offset="0.9013" style="stop-color:#5B5859"/>
								<stop  offset="0.9596" style="stop-color:#484546"/>
								<stop  offset="1" style="stop-color:#413E3F"/>
							</linearGradient>
							<path class="st12" d="M662.4,635.6c4.7-10,7.9-19.2,8.8-24.5l-26.8-8.3c-2.4,3.1-6.5,10.6-10.7,19.6
								c-4.3,9.3-7.5,17.5-8.2,21.1l23.3,15.1C652.3,654.8,657.5,646.2,662.4,635.6z"/>
						</g>
						<g>
							
								<linearGradient id="SVGID_14_" gradientUnits="userSpaceOnUse" x1="998.7597" y1="1284.6281" x2="1022.6494" y2="1284.6281" gradientTransform="matrix(-0.7482 0.6635 -0.6635 -0.7482 1871.5142 767.5176)">
								<stop  offset="0.1022" style="stop-color:#E9E8E8"/>
								<stop  offset="0.3387" style="stop-color:#636162"/>
								<stop  offset="0.7097" style="stop-color:#C2C0C1"/>
								<stop  offset="0.7553" style="stop-color:#A5A3A4"/>
								<stop  offset="0.8322" style="stop-color:#7A7778"/>
								<stop  offset="0.9013" style="stop-color:#5B5859"/>
								<stop  offset="0.9596" style="stop-color:#484546"/>
								<stop  offset="1" style="stop-color:#413E3F"/>
							</linearGradient>
							<path class="st13" d="M264.4,478.6c4.9-4.4,8.4-8.6,7.7-9.3l-1.7-1.5c-1.3,2-4.2,5.1-7.9,8.4c-3.9,3.4-7.5,6-9.6,7l1.3,2
								C254.9,485.8,259.4,482.9,264.4,478.6z"/>
							
								<linearGradient id="SVGID_15_" gradientUnits="userSpaceOnUse" x1="997.2953" y1="1300.3571" x2="1023.763" y2="1300.3571" gradientTransform="matrix(-0.7482 0.6635 -0.6635 -0.7482 1871.5142 767.5176)">
								<stop  offset="0.1022" style="stop-color:#E9E8E8"/>
								<stop  offset="0.3387" style="stop-color:#636162"/>
								<stop  offset="0.7097" style="stop-color:#C2C0C1"/>
								<stop  offset="0.7553" style="stop-color:#A5A3A4"/>
								<stop  offset="0.8322" style="stop-color:#7A7778"/>
								<stop  offset="0.9013" style="stop-color:#5B5859"/>
								<stop  offset="0.9596" style="stop-color:#484546"/>
								<stop  offset="1" style="stop-color:#413E3F"/>
							</linearGradient>
							<path class="st14" d="M260.9,459.6l-1.4-1.2c0,0,0,0,0,0c-0.3-0.4-3.9,2.2-7.9,5.7c-4,3.5-7,6.7-6.6,7.1c0,0,0,0,0,0l1,1.6
								c0.9-1.3,3.6-4.1,7-7.1C256.4,462.8,259.4,460.5,260.9,459.6z"/>
							
								<linearGradient id="SVGID_16_" gradientUnits="userSpaceOnUse" x1="995.719" y1="1292.6101" x2="1025.1693" y2="1292.6101" gradientTransform="matrix(-0.7482 0.6635 -0.6635 -0.7482 1871.5142 767.5176)">
								<stop  offset="0.1022" style="stop-color:#E9E8E8"/>
								<stop  offset="0.3387" style="stop-color:#636162"/>
								<stop  offset="0.7097" style="stop-color:#C2C0C1"/>
								<stop  offset="0.7553" style="stop-color:#A5A3A4"/>
								<stop  offset="0.8322" style="stop-color:#7A7778"/>
								<stop  offset="0.9013" style="stop-color:#5B5859"/>
								<stop  offset="0.9596" style="stop-color:#484546"/>
								<stop  offset="1" style="stop-color:#413E3F"/>
							</linearGradient>
							<path class="st15" d="M262.4,476.1c3.7-3.3,6.6-6.4,7.9-8.4l-9.5-8.1c-1.5,0.8-4.5,3.1-7.8,6.1c-3.4,3-6.1,5.8-7,7.1
								l6.8,10.2C254.9,482.1,258.6,479.5,262.4,476.1z"/>
						</g>
						
							<linearGradient id="SVGID_17_" gradientUnits="userSpaceOnUse" x1="463.4008" y1="466.2255" x2="591.3424" y2="555.0909" gradientTransform="matrix(-9.010000e-02 0.9099 -0.9099 9.010000e-02 1089.5234 90.2862)">
							<stop  offset="0.1022" style="stop-color:#E9E8E8"/>
							<stop  offset="1" style="stop-color:#565354"/>
						</linearGradient>
						
							<linearGradient id="SVGID_18_" gradientUnits="userSpaceOnUse" x1="468.2198" y1="502.7487" x2="551.9783" y2="502.7487" gradientTransform="matrix(-9.010000e-02 0.9099 -0.9099 9.010000e-02 1089.5234 90.2862)">
							<stop  offset="0" style="stop-color:#565354"/>
							<stop  offset="0.8978" style="stop-color:#E9E8E8"/>
						</linearGradient>
						<path class="st16" d="M618.8,567.1c-5.9-5.9-12.9-8.5-15.7-5.8L546,628.2c-1.2,1.2,0.4,4.9,3.6,8.1c3.2,3.2,6.8,4.8,8.1,3.6
							l66.9-57.1C627.3,580,624.7,573,618.8,567.1z"/>
						<g>
							<path class="st17" d="M585.6,611.8c-6.4,0-11.6-5.2-11.6-11.6c0-6.4,5.2-11.6,11.6-11.6c6.4,0,11.6,5.2,11.6,11.6
								C597.2,606.6,592,611.8,585.6,611.8z"/>
							<path class="st18" d="M585.6,607c-3.7,0-6.8-3-6.8-6.8c0-3.7,3-6.8,6.8-6.8c3.7,0,6.8,3,6.8,6.8
								C592.4,604,589.4,607,585.6,607z"/>
						</g>
					</g>
				</g>
			</g>
		</g>
		<g>
			<g>
				<polygon class="st19" points="559.3,135.4 559.3,206.1 688.2,206.1 654.4,171.4 688.2,135.4 				"/>
				<polygon class="st20" points="559.3,206.1 606.5,237.8 606.5,167.1 559.3,135.4 				"/>
				<polygon class="st19" points="240.7,135.4 240.7,206.1 111.9,206.1 145.6,171.4 111.9,135.4 				"/>
				<polygon class="st20" points="240.7,206.1 193.6,237.8 193.6,167.1 240.7,135.4 				"/>
				<rect x="193.6" y="167.1" class="st21" width="412.9" height="70.7"/>
			</g>
			<text transform="matrix(1 0 0 1 202.9357 222.9899)" class="st22 st23 st24">MUSIC MAP</text>
		</g>
	</g>
</g>
</svg>
